<?xml version="1.0" encoding="UTF-8" standalone="no"?>
<svg xmlns="http://www.w3.org/2000/svg" viewBox="0 0 24 24">
<style>
	g path { stroke: none; }
	g.root { display: none; }
	g.root:target { display: inline; }
	g line { stroke: black; }
	g circle { stroke: black; }
	g polyline { stroke: black; }
</style>
<g class="root" id="arrow_down" data-name="arrow-down">
	<path d="M13.006 18.316l10.823-10.823a1.217 1.217 0 0 0-1.668-1.668l-10.006 10.006l-10.006-10.006A1.234 1.234 5.402 0 0 0.399 5.642a1.201 1.201 0 0 0-0.117 1.668A0.384 0.384 5.402 0 0 0.399 7.476L11.289 18.316a1.234 1.234 0 0 0 1.668 0Z" />
</g>
<g class="root" id="arrow_down_alt" data-name="arrow-down-alt">
	<path d="M6.933 18.981l1.059-1.05l3.259 3.23V0h1.498v21.161l3.258-3.229L17.066 18.981L12 24Z" />
</g>
<g class="root" id="arrow_left" data-name="arrow-left">
	<path d="M0 12.001l5.02-5.067l1.05 1.061l-3.227 3.255H24v1.498h-21.163l3.232 3.26l-1.05 1.058Z" />
</g>
<g class="root" id="arrow_right" data-name="arrow-right">
	<path d="M17.93 16.008l3.23-3.259H-0.001v-1.499h21.161l-3.23-3.258l1.05-1.059l5.02 5.067l-5.02 5.067Z" />
</g>
<g class="root" id="arrow_up" data-name="arrow-up">
	<path d="M11.112 5.691L0.389 16.482A1.23 1.23 5.377 0 0 0.389 18.277a1.23 1.23 0 0 0 1.663 0L12.028 8.301l9.975 9.975A1.23 1.23 5.377 0 0 23.665 18.277A1.197 1.197 5.377 0 0 23.665 16.615L23.665 16.515L12.826 5.724a1.23 1.23 0 0 0-1.663 0Z" />
</g>
<g class="root" id="article" data-name="article">
	<path d="M20.672 3.124h2.562A0.766 0.766 0 0 1 24 3.888V21.202a2.202 2.202 0 0 1-2.198 2.198H3.012A3.019 3.019 0 0 1 0 20.388V1.347A0.749 0.749 0 0 1 0.746 0.6H19.927a0.746 0.746 0 0 1 0.746 0.746V3.124ZM19.92 22.332a2.185 2.185 0 0 1-0.316-1.13V1.667H1.067v18.72a1.951 1.951 0 0 0 1.944 1.944ZM22.933 4.191H20.672V21.202a1.13 1.13 0 1 0 2.261 0ZM2.861 3.184H10.547a0.72 0.72 0 0 1 0.72 0.72v4.26a0.72 0.72 0 0 1-0.72 0.72H2.861a0.72 0.72 0 0 1-0.72-0.72v-4.26A0.72 0.72 0 0 1 2.861 3.184ZM10.2 4.252H3.209V7.817H10.2Zm2.875 10.613h4.826a0.647 0.647 0 0 1 0.643 0.643v4.83A0.647 0.647 0 0 1 17.9 20.981H13.073a0.647 0.647 0 0 1-0.643-0.643v-4.83A0.647 0.647 0 0 1 13.073 14.866Zm4.404 1.068H13.5v3.983H17.478ZM18.414 3.719a0.535 0.535 0 0 1-0.533 0.534H14.825a0.534 0.534 0 0 1 0-1.068H17.88A0.535 0.535 0 0 1 18.414 3.719Zm0 4.632a0.535 0.535 0 0 1-0.533 0.534H12.725a0.534 0.534 0 0 1 0-1.068H17.88A0.535 0.535 0 0 1 18.414 8.35Zm0-2.316a0.535 0.535 0 0 1-0.533 0.534H12.725a0.534 0.534 0 0 1 0-1.068H17.88A0.535 0.535 0 0 1 18.414 6.035Zm0 4.702a0.535 0.535 0 0 1-0.533 0.534H2.678a0.534 0.534 0 0 1 0-1.068H17.88A0.535 0.535 0 0 1 18.414 10.737Zm0 2.363a0.535 0.535 0 0 1-0.533 0.534H2.678a0.534 0.534 0 0 1 0-1.068H17.88A0.534 0.534 0 0 1 18.414 13.099ZM11.045 15.461a0.535 0.535 0 0 1-0.533 0.534H2.677a0.534 0.534 0 0 1 0-1.068H10.512A0.535 0.535 0 0 1 11.045 15.461Zm0 2.407a0.535 0.535 0 0 1-0.533 0.534H2.677a0.534 0.534 0 0 1 0-1.068H10.512A0.535 0.535 0 0 1 11.045 17.871Zm-1.903 2.408a0.535 0.535 0 0 1-0.533 0.534H2.677a0.534 0.534 0 0 1 0-1.068h5.932A0.535 0.535 0 0 1 9.143 20.278Zm1.37-0.534a0.534 0.534 0 1 1-0.533 0.534A0.534 0.534 0 0 1 10.512 19.745Z" />
</g>
<g class="root" id="award" data-name="award">
	<path d="M23.486 13.608l0.419 0.246l-0.235 0.427c-0.655 1.184-1.28 2.051-2.206 2.431l-0.379-0.922c0.492-0.202 0.92-0.647 1.453-1.539a2.601 2.601 0 0 0-1.662-0.123c-0.858 0.23-1.631 0.913-2.234 1.973l-0.867-0.493c0.739-1.298 1.721-2.144 2.843-2.444A3.693 3.693-16.107 0 1 23.486 13.608Zm-1.985 4.165l0.361 0.345l-0.345 0.36c-1.118 1.171-2.258 1.763-3.387 1.763-0.055 0-0.108-0.001-0.162-0.004-0.913-0.045-1.808-0.482-2.657-1.293l-0.361-0.345l0.345-0.36C17.202 16.239 19.698 16.052 21.501 17.773Zm-1.086 0.391c-1.229-0.891-2.706-0.744-4.022 0.403a2.898 2.898 0 0 0 1.623 0.675l0-0.001C18.777 19.28 19.585 18.916 20.415 18.165Zm3.089-9.708c-2.489-0.166-4.281 1.578-4.465 4.338l0.995 0.066c0.135-2.029 1.223-3.293 2.886-3.41-0.157 1.152-0.567 1.965-1.219 2.418l0.57 0.819c1.011-0.703 1.582-1.947 1.699-3.701l0.031-0.498Zm-3.613 0.834c-0.624-1.936-0.079-3.513 1.421-4.234 0.28 1.132 0.198 2.039-0.242 2.701l0.831 0.552c0.682-1.026 0.755-2.396 0.215-4.072l-0.153-0.474l-0.474 0.153c-2.371 0.765-3.395 3.049-2.547 5.682ZM2.913 15.79c-0.493-0.203-0.918-0.647-1.453-1.539a2.594 2.594 0 0 1 1.662-0.123c0.858 0.23 1.631 0.913 2.234 1.973l0.867-0.493c-0.739-1.298-1.721-2.144-2.843-2.444a3.698 3.698 0 0 0-2.87 0.444l-0.419 0.246L0.328 14.28c0.655 1.184 1.28 2.051 2.206 2.431Zm5.794 2.449l0.345 0.36l-0.361 0.345c-0.851 0.813-1.744 1.247-2.657 1.293-0.054 0.004-0.108 0.004-0.162 0.004-1.132 0-2.27-0.592-3.387-1.763l-0.345-0.36l0.361-0.345C4.302 16.052 6.796 16.24 8.707 18.239Zm-1.1 0.326c-1.315-1.147-2.791-1.292-4.022-0.403 0.829 0.754 1.636 1.119 2.397 1.078h0A2.899 2.899-16.107 0 0 7.607 18.565ZM1.731 12.687l0.57-0.819C1.647 11.415 1.237 10.602 1.08 9.45c1.662 0.118 2.751 1.38 2.886 3.41l0.996-0.068c-0.183-2.76-1.971-4.505-4.465-4.34l-0.498 0.034l0.031 0.498C0.149 10.74 0.72 11.985 1.731 12.687ZM2.931 7.757c-0.442-0.664-0.522-1.569-0.242-2.702 1.5 0.721 2.045 2.3 1.423 4.234l0.948 0.306c0.849-2.632-0.174-4.915-2.547-5.682l-0.474-0.153l-0.153 0.474c-0.541 1.676-0.468 3.046 0.215 4.072Zm15.052 2.766c0 5.889-5.508 8.999-5.743 9.127a0.497 0.497 0 0 1-0.482 0c-0.235-0.128-5.743-3.238-5.743-9.127V8.378a0.499 0.499 0 0 1 0.465-0.498c2.317-0.151 5.144-2.828 5.174-2.854a0.499 0.499 0 0 1 0.69 0c0.03 0.026 2.857 2.704 5.174 2.854A0.499 0.499-16.107 0 1 17.986 8.378Zm-0.997-1.702c-2.049-0.349-4.171-2.047-4.987-2.76-0.817 0.711-2.938 2.41-4.987 2.76v1.702c0 4.642 3.958 7.456 4.987 8.11 1.027-0.655 4.987-3.481 4.987-8.11Zm-5.159-0.895a0.498 0.498 0 0 1 0.642 0.29l0.774 2.044l2.029 0.105a0.499 0.499 0 0 1 0.311 0.867l-1.587 1.452l0.497 2.061a0.499 0.499 0 0 1-0.749 0.539l-1.74-1.086L10.264 15.284a0.499 0.499 0 0 1-0.749-0.539l0.497-2.063l-1.587-1.452a0.499 0.499 0 0 1 0.311-0.867l2.029-0.105l0.774-2.044A0.498 0.498-16.107 0 1 11.827 7.925Zm0.173 1.874l-0.423 1.117a0.499 0.499 0 0 1-0.439 0.321l-1.164 0.06l0.926 0.847a0.499 0.499 0 0 1 0.148 0.484l-0.281 1.16l0.97-0.605a0.499 0.499 0 0 1 0.528 0l0.97 0.605l-0.281-1.16a0.499 0.499 0 0 1 0.148-0.484l0.926-0.847l-1.164-0.06a0.499 0.499 0 0 1-0.439-0.321Zm-0.464-1.585v0h0Z" />
</g>
<g class="root" id="calendar" data-name="calendar">
	<path class="fill-secondary" d="M3.305 12.091h1.996a0.341 0.341 0 0 0 0.341-0.342V10.353a0.341 0.341 0 0 0-0.341-0.34h-1.996a0.341 0.341 0 0 0-0.341 0.34v1.397A0.341 0.341-104.566 0 0 3.305 12.091Zm-0.067-1.739a0.067 0.067 0 0 1 0.067-0.067h1.996a0.067 0.067 0 0 1 0.067 0.067v1.397a0.068 0.068 0 0 1-0.067 0.067h-1.996a0.068 0.068 0 0 1-0.067-0.067Zm0.067 2.53h1.996a1.133 1.133 0 0 0 1.132-1.132v-1.398a1.135 1.135 0 0 0-1.132-1.131h-1.996a1.133 1.133 0 0 0-1.132 1.132v1.397A1.133 1.133-104.566 0 0 3.305 12.882Zm-0.857-2.53a0.858 0.858 0 0 1 0.857-0.857h1.996a0.859 0.859 0 0 1 0.857 0.857v1.397a0.859 0.859 0 0 1-0.857 0.858h-1.996a0.859 0.859 0 0 1-0.857-0.858Zm5.987 2.53h1.996a1.133 1.133 0 0 0 1.132-1.132V10.353a1.133 1.133 0 0 0-1.132-1.132h-1.996a1.132 1.132 0 0 0-1.131 1.132v1.397A1.133 1.133-104.566 0 0 8.435 12.882Zm-0.857-2.53a0.858 0.858 0 0 1 0.857-0.857h1.996a0.859 0.859 0 0 1 0.858 0.857v1.397a0.859 0.859 0 0 1-0.858 0.858h-1.996a0.859 0.859 0 0 1-0.857-0.858Zm0.857 1.739h1.996a0.342 0.342 0 0 0 0.342-0.342V10.353a0.341 0.341 0 0 0-0.342-0.34h-1.996a0.341 0.341 0 0 0-0.34 0.34v1.397A0.342 0.342-104.566 0 0 8.435 12.091Zm-0.067-1.739a0.067 0.067 0 0 1 0.067-0.067h1.996a0.067 0.067 0 0 1 0.067 0.067v1.397a0.068 0.068 0 0 1-0.067 0.067h-1.996a0.067 0.067 0 0 1-0.067-0.067ZM13.567 12.091h1.996a0.342 0.342 0 0 0 0.342-0.342V10.353a0.341 0.341 0 0 0-0.342-0.34H13.567a0.341 0.341 0 0 0-0.342 0.34v1.397A0.342 0.342-104.566 0 0 13.567 12.091Zm-0.067-1.739a0.067 0.067 0 0 1 0.067-0.067h1.996a0.067 0.067 0 0 1 0.067 0.067v1.397a0.068 0.068 0 0 1-0.067 0.067H13.567a0.068 0.068 0 0 1-0.067-0.067Zm0.067 2.53h1.996a1.133 1.133 0 0 0 1.132-1.132V10.353a1.133 1.133 0 0 0-1.132-1.132H13.567a1.133 1.133 0 0 0-1.132 1.132v1.397A1.133 1.133-104.566 0 0 13.567 12.882Zm-0.858-2.53a0.859 0.859 0 0 1 0.858-0.857h1.996a0.859 0.859 0 0 1 0.858 0.857v1.397a0.859 0.859 0 0 1-0.858 0.858H13.567a0.859 0.859 0 0 1-0.858-0.858Zm5.989 2.53h1.996a1.133 1.133 0 0 0 1.132-1.132V10.353a1.133 1.133 0 0 0-1.132-1.132h-1.996a1.132 1.132 0 0 0-1.131 1.132v1.397A1.133 1.133-104.566 0 0 18.697 12.882Zm-0.857-2.53a0.858 0.858 0 0 1 0.857-0.857h1.996a0.858 0.858 0 0 1 0.857 0.857v1.397a0.859 0.859 0 0 1-0.857 0.858h-1.996a0.859 0.859 0 0 1-0.857-0.858Zm0.857 1.739h1.996a0.341 0.341 0 0 0 0.34-0.342V10.353a0.341 0.341 0 0 0-0.34-0.34h-1.996a0.341 0.341 0 0 0-0.34 0.34v1.397A0.341 0.341-104.566 0 0 18.697 12.091Zm-0.067-1.739a0.067 0.067 0 0 1 0.067-0.067h1.996a0.067 0.067 0 0 1 0.067 0.067v1.397a0.067 0.067 0 0 1-0.067 0.067h-1.996a0.067 0.067 0 0 1-0.067-0.067ZM3.305 16.554h1.996a0.341 0.341 0 0 0 0.341-0.341V14.816a0.342 0.342 0 0 0-0.341-0.342h-1.996a0.342 0.342 0 0 0-0.341 0.342v1.398A0.341 0.341-104.566 0 0 3.305 16.554Zm-0.067-1.738a0.068 0.068 0 0 1 0.067-0.067h1.996a0.068 0.068 0 0 1 0.067 0.067v1.398a0.067 0.067 0 0 1-0.067 0.067h-1.996a0.067 0.067 0 0 1-0.067-0.067Zm0.067 2.53h1.996a1.133 1.133 0 0 0 1.132-1.132V14.816a1.135 1.135 0 0 0-1.132-1.132h-1.996a1.133 1.133 0 0 0-1.132 1.132v1.398A1.133 1.133-104.566 0 0 3.305 17.347Zm-0.857-2.53a0.859 0.859 0 0 1 0.857-0.858h1.996a0.859 0.859 0 0 1 0.857 0.858v1.398a0.859 0.859 0 0 1-0.857 0.858h-1.996a0.859 0.859 0 0 1-0.857-0.858Zm5.987 2.53h1.996a1.133 1.133 0 0 0 1.132-1.132V14.816a1.133 1.133 0 0 0-1.132-1.132h-1.996a1.133 1.133 0 0 0-1.131 1.132v1.398A1.133 1.133-104.566 0 0 8.435 17.347Zm-0.857-2.53a0.858 0.858 0 0 1 0.857-0.858h1.996a0.859 0.859 0 0 1 0.858 0.858v1.398a0.859 0.859 0 0 1-0.858 0.858h-1.996a0.859 0.859 0 0 1-0.857-0.858Zm0.857 1.738h1.996a0.341 0.341 0 0 0 0.342-0.341V14.816a0.342 0.342 0 0 0-0.342-0.342h-1.996a0.342 0.342 0 0 0-0.34 0.342v1.398A0.341 0.341-104.566 0 0 8.435 16.554Zm-0.067-1.738a0.068 0.068 0 0 1 0.067-0.067h1.996a0.067 0.067 0 0 1 0.067 0.067v1.398a0.067 0.067 0 0 1-0.067 0.067h-1.996a0.067 0.067 0 0 1-0.067-0.067ZM13.567 17.347h1.996a1.133 1.133 0 0 0 1.132-1.132V14.816a1.133 1.133 0 0 0-1.132-1.132H13.567a1.133 1.133 0 0 0-1.132 1.132v1.398A1.133 1.133-104.566 0 0 13.567 17.347Zm-0.858-2.53a0.859 0.859 0 0 1 0.858-0.858h1.996a0.859 0.859 0 0 1 0.858 0.858v1.398a0.859 0.859 0 0 1-0.858 0.858H13.567a0.859 0.859 0 0 1-0.858-0.858Zm0.859 1.738h1.996a0.341 0.341 0 0 0 0.342-0.341V14.816a0.342 0.342 0 0 0-0.342-0.342H13.567a0.342 0.342 0 0 0-0.342 0.342v1.398A0.341 0.341-104.566 0 0 13.567 16.554Zm-0.067-1.738a0.067 0.067 0 0 1 0.067-0.067h1.996a0.068 0.068 0 0 1 0.067 0.067v1.398a0.067 0.067 0 0 1-0.067 0.067H13.567a0.067 0.067 0 0 1-0.067-0.067Zm5.197 2.53h1.996a1.133 1.133 0 0 0 1.132-1.132V14.816a1.133 1.133 0 0 0-1.132-1.132h-1.996a1.132 1.132 0 0 0-1.131 1.132v1.398A1.133 1.133-104.566 0 0 18.697 17.347Zm-0.857-2.53a0.858 0.858 0 0 1 0.857-0.858h1.996a0.859 0.859 0 0 1 0.857 0.858v1.398a0.859 0.859 0 0 1-0.857 0.858h-1.996a0.859 0.859 0 0 1-0.857-0.858Zm0.857 1.738h1.996a0.341 0.341 0 0 0 0.34-0.341V14.816a0.341 0.341 0 0 0-0.34-0.342h-1.996a0.341 0.341 0 0 0-0.34 0.342v1.398A0.341 0.341-104.566 0 0 18.697 16.554Zm-0.067-1.738a0.068 0.068 0 0 1 0.067-0.067h1.996a0.068 0.068 0 0 1 0.067 0.067v1.398a0.067 0.067 0 0 1-0.067 0.067h-1.996a0.067 0.067 0 0 1-0.067-0.067Zm-15.325 6.2h1.996a0.341 0.341 0 0 0 0.341-0.342V19.277a0.34 0.34 0 0 0-0.341-0.34h-1.996a0.34 0.34 0 0 0-0.341 0.34V20.674A0.341 0.341-104.566 0 0 3.305 21.016Zm-0.067-1.739a0.067 0.067 0 0 1 0.067-0.066h1.996a0.067 0.067 0 0 1 0.067 0.066V20.674a0.067 0.067 0 0 1-0.067 0.067h-1.996a0.067 0.067 0 0 1-0.067-0.067Zm0.067 2.53h1.996a1.133 1.133 0 0 0 1.132-1.133V19.277a1.135 1.135 0 0 0-1.132-1.13h-1.996a1.132 1.132 0 0 0-1.132 1.13V20.674A1.135 1.135-104.566 0 0 3.305 21.809Zm-0.857-2.53a0.858 0.858 0 0 1 0.857-0.857h1.996a0.859 0.859 0 0 1 0.857 0.857V20.674a0.859 0.859 0 0 1-0.857 0.859h-1.996a0.859 0.859 0 0 1-0.857-0.859Zm5.987 2.53h1.996a1.135 1.135 0 0 0 1.132-1.133V19.277a1.132 1.132 0 0 0-1.132-1.13h-1.996a1.132 1.132 0 0 0-1.131 1.13V20.674A1.133 1.133-104.566 0 0 8.435 21.809Zm-0.857-2.53a0.857 0.857 0 0 1 0.857-0.857h1.996a0.858 0.858 0 0 1 0.858 0.857V20.674a0.859 0.859 0 0 1-0.858 0.859h-1.996a0.859 0.859 0 0 1-0.857-0.859Zm0.857 1.739h1.996a0.342 0.342 0 0 0 0.342-0.342V19.277a0.341 0.341 0 0 0-0.342-0.34h-1.996a0.34 0.34 0 0 0-0.34 0.34V20.674A0.342 0.342-104.566 0 0 8.435 21.016Zm-0.067-1.739a0.067 0.067 0 0 1 0.067-0.066h1.996a0.067 0.067 0 0 1 0.067 0.066V20.674a0.068 0.068 0 0 1-0.067 0.067h-1.996a0.067 0.067 0 0 1-0.067-0.067ZM13.567 21.016h1.996a0.342 0.342 0 0 0 0.342-0.342V19.277a0.341 0.341 0 0 0-0.342-0.34H13.567a0.341 0.341 0 0 0-0.342 0.34V20.674A0.342 0.342-104.566 0 0 13.567 21.016Zm-0.067-1.739a0.067 0.067 0 0 1 0.067-0.066h1.996a0.067 0.067 0 0 1 0.067 0.066V20.674a0.068 0.068 0 0 1-0.067 0.067H13.567a0.068 0.068 0 0 1-0.067-0.067Zm0.067 2.53h1.996a1.135 1.135 0 0 0 1.132-1.133V19.277a1.132 1.132 0 0 0-1.132-1.13H13.567a1.132 1.132 0 0 0-1.132 1.13V20.674A1.135 1.135-104.566 0 0 13.567 21.809Zm-0.858-2.53a0.858 0.858 0 0 1 0.858-0.857h1.996a0.858 0.858 0 0 1 0.858 0.857V20.674a0.859 0.859 0 0 1-0.858 0.859H13.567a0.859 0.859 0 0 1-0.858-0.859Zm5.989 1.739h1.996a0.341 0.341 0 0 0 0.34-0.342V19.277a0.34 0.34 0 0 0-0.34-0.34h-1.996a0.34 0.34 0 0 0-0.34 0.34V20.674A0.341 0.341-104.566 0 0 18.697 21.016Zm-0.067-1.739a0.067 0.067 0 0 1 0.067-0.066h1.996a0.067 0.067 0 0 1 0.067 0.066V20.674a0.067 0.067 0 0 1-0.067 0.067h-1.996a0.067 0.067 0 0 1-0.067-0.067Zm0.067 2.53h1.996A1.135 1.135-104.566 0 0 21.826 20.674V19.277a1.132 1.132 0 0 0-1.132-1.13h-1.996a1.132 1.132 0 0 0-1.131 1.13V20.674A1.133 1.133-104.566 0 0 18.697 21.809Zm-0.857-2.53a0.857 0.857 0 0 1 0.857-0.857h1.996a0.857 0.857 0 0 1 0.857 0.857V20.674a0.859 0.859 0 0 1-0.857 0.859h-1.996a0.859 0.859 0 0 1-0.857-0.859ZM14.495 5.133a0.778 0.778 0 0 0 0.778-0.778v-2.786a0.778 0.778 0 1 0-1.556 0v2.786A0.778 0.778-104.566 0 0 14.495 5.133Zm-0.503-3.563a0.503 0.503 0 1 1 1.007 0v2.786a0.503 0.503 0 0 1-1.007 0Zm5.493 3.563a0.778 0.778 0 0 0 0.778-0.778v-2.786a0.778 0.778 0 1 0-1.555 0v2.786A0.778 0.778-104.566 0 0 19.483 5.133Zm-0.503-3.563a0.503 0.503 0 1 1 1.005 0v2.786a0.503 0.503 0 1 1-1.005 0Zm-18.136 20.344a1.297 1.297 0 0 0 1.296 1.296h19.719a1.297 1.297 0 0 0 1.296-1.296V7.983H0.844Zm0.274-13.656h21.764v13.656a1.022 1.022 0 0 1-1.022 1.022h-19.719a1.023 1.023 0 0 1-1.022-1.022ZM21.856 2.84h-1.082v1.516a1.294 1.294 0 1 1-2.589 0V2.84h-2.399v1.516a1.295 1.295 0 1 1-2.589 0V2.84h-2.4v1.516a1.294 1.294 0 1 1-2.589 0V2.84h-2.399v1.516a1.295 1.295 0 1 1-2.589 0V2.84H2.141a1.297 1.297 0 0 0-1.295 1.297V7.467h22.308V4.136A1.297 1.297-104.566 0 0 21.856 2.84Zm1.022 4.352H1.12V4.136A1.023 1.023-104.566 0 1 2.141 3.113h0.808v1.242a1.568 1.568 0 1 0 3.137 0V3.113h1.85v1.242a1.568 1.568 0 1 0 3.137 0V3.113h1.852v1.242a1.568 1.568 0 1 0 3.137 0V3.113h1.85v1.242a1.568 1.568 0 1 0 3.137 0V3.113h0.808a1.023 1.023 0 0 1 1.022 1.022Zm-1.017-5.144h-0.808v-0.479a1.569 1.569 0 0 0-3.138 0v0.479h-1.85v-0.479a1.569 1.569 0 0 0-3.138 0v0.479h-1.852v-0.479a1.568 1.568 0 1 0-3.137 0v0.479H6.087v-0.479a1.569 1.569 0 0 0-3.138 0v0.479h-0.808a2.091 2.091 0 0 0-2.089 2.087v17.777a2.092 2.092 0 0 0 2.089 2.087h19.719a2.09 2.09 0 0 0 2.089-2.087V4.136A2.09 2.09-104.566 0 0 21.86 2.049Zm1.813 19.865a1.816 1.816 0 0 1-1.814 1.813h-19.719a1.817 1.817 0 0 1-1.814-1.813V4.136a1.816 1.816 0 0 1 1.814-1.813h1.082V1.57a1.295 1.295 0 0 1 2.59 0V2.323H8.211V1.57a1.294 1.294 0 1 1 2.589 0V2.323h2.4V1.57a1.295 1.295 0 0 1 2.59 0V2.323h2.399V1.57a1.295 1.295 0 0 1 2.59 0V2.323h1.082a1.816 1.816 0 0 1 1.813 1.813Zm-14.169-16.78a0.778 0.778 0 0 0 0.778-0.778v-2.786a0.778 0.778 0 1 0-1.556 0v2.786A0.778 0.778-104.566 0 0 9.505 5.133Zm-0.503-3.563a0.503 0.503 0 1 1 1.007 0v2.786a0.503 0.503 0 1 1-1.007 0ZM4.516 5.133a0.778 0.778 0 0 0 0.778-0.778v-2.786a0.778 0.778 0 1 0-1.556 0v2.786A0.778 0.778-104.566 0 0 4.516 5.133Zm-0.503-3.563a0.503 0.503 0 1 1 1.005 0v2.786a0.503 0.503 0 0 1-1.005 0Z" />
</g>
<g class="root" id="check" data-name="check">
	<path d="M23.333 7.257l-12.778 12.778a2.291 2.291 0 0 1-3.208 0l-6.476-6.416a2.324 2.324 0 1 1 3.267-3.267l4.811 4.815l11.171-11.171a2.324 2.324 0 0 1 3.267 0a2.394 2.394 0 0 1-0.063 3.267h0" />
</g>
<g class="root" id="citizenship" data-name="citizenship">
	<path d="M8.688 0a1.416 1.416 0 0 0-0.995 0.422L1.401 6.739a1.358 1.358 0 0 0-0.049 1.911l7.472 7.503v-1.062L1.88 8.12a0.605 0.605 0 0 1 0.049-0.851l1.55-1.557L8.823 11.077V10.018L4.009 5.182l2.133-2.143l2.682 2.693V5.25a2.298 2.298 0 0 1 0.061-0.516L6.67 2.508L8.219 0.952a0.669 0.669 0 0 1 0.467-0.201a0.534 0.534 0 0 1 0.379 0.153l2.088 2.097h1.057L9.596 0.373A1.268 1.268-0.555 0 0 8.688 0Zm0.883 5.25V22.5A1.499 1.499-0.555 0 0 11.064 24H21.522a1.499 1.499 0 0 0 1.495-1.5V5.25a1.499 1.499 0 0 0-1.495-1.5H11.064A1.499 1.499-0.555 0 0 9.571 5.25Zm12.698 0V22.5a0.748 0.748 0 0 1-0.748 0.75H11.064a0.748 0.748 0 0 1-0.748-0.75V5.25a0.748 0.748 0 0 1 0.748-0.75H21.522a0.748 0.748 0 0 1 0.748 0.75ZM16.294 15.563A4.504 4.504-0.555 1 0 11.811 11.062A4.496 4.496-0.555 0 0 16.294 15.563Zm1.52-7.922a3.753 3.753 0 0 1 0 6.846a7.46 7.46 0 0 0 0.72-3.423a7.46 7.46 0 0 0-0.72-3.423Zm-1.52-0.327c0.826 0 1.495 1.679 1.495 3.75s-0.669 3.75-1.495 3.75-1.495-1.679-1.495-3.75S15.468 7.312 16.294 7.312Zm-1.522 0.327a7.46 7.46 0 0 0-0.72 3.423a7.46 7.46 0 0 0 0.72 3.423a3.753 3.753 0 0 1 0-6.846ZM13.305 17.812a0.375 0.375 0 0 0 0 0.75H19.281a0.375 0.375 0 0 0 0-0.75Zm-1.213 2.625H20.494a0.375 0.375 0 0 0 0-0.75H12.091a0.375 0.375 0 0 0 0 0.75Z" />
</g>
<g class="root" id="close" data-name="close">
	<path d="M1.285 0.002A1.498 1.498 0.012 0 0 0.012 1.5a1.498 1.498 0 0 0 0.434 0.884L10.019 11.986L0.447 21.604a1.408 1.408 0 0 0 0 1.992a1.393 1.393 0 0 0 1.962 0L11.996 14.009l9.572 9.587a1.498 1.498 0 0 0 2.007 0a1.408 1.408 0 0 0 0-1.992L14.034 11.986l9.587-9.587A1.423 1.423 0.012 0 0 21.614 0.437L11.996 10.009L2.454 0.437A1.588 1.588 0.012 0 0 1.285 0.002Z" />
</g>
<g class="root" id="court" data-name="Court">
	<path d="M23.608 21.445L22.687 21.445L22.687 20.234C22.687 20.012 22.539 19.865 22.346 19.865L21.285 19.865L21.285 18.758C21.285 18.536 21.139 18.388 20.917 18.388L20.843 18.388L20.843 9.342L20.917 9.342C21.139 9.342 21.285 9.236 21.285 8.972L21.285 7.865L22.346 7.865C22.539 7.865 22.687 7.717 22.687 7.548L22.687 6.018L23.608 6.018C23.983 6.018 23.941 5.908 23.978 5.723C24.014 5.539 23.941 5.391 23.756 5.431L12.143 0C12.032 0.035 11.921 0.035 11.847 0L0.376 5.431C0.086 5.391 0.024 5.576 0.013 5.723C0.049 5.908 0.197 6.258 0.382 6.258L1.303 6.258L1.303 7.533C1.303 7.946 1.615 7.902 1.671 7.902L2.705 7.902L2.705 9.009C2.705 9.231 2.852 9.379 3.073 9.379L3.278 9.379L3.278 18.499L3.073 18.499C2.852 18.499 2.705 18.573 2.705 18.794L2.705 19.902L1.671 19.902C1.615 19.902 1.303 20.049 1.303 20.271L1.303 21.379L0.382 21.379C0.16 21.379 0.013 21.527 0.013 21.748L0.013 23.631C0.013 23.853 0.16 24 0.382 24L23.608 24C23.83 24 23.978 23.853 23.978 23.631L23.978 21.748C23.978 21.49 23.83 21.445 23.608 21.445ZM16.456 19.865L16.456 18.758C16.456 18.536 16.308 18.388 16.087 18.388L16.123 18.388L16.123 9.342L16.087 9.342C16.308 9.342 16.456 9.236 16.456 8.972L16.456 7.865L17.361 7.865L17.361 8.972C17.361 9.236 17.378 9.342 17.599 9.342L17.672 9.342L17.672 18.388L17.599 18.388C17.378 18.388 17.361 18.536 17.361 18.758L17.361 19.865L16.456 19.865ZM11.59 19.865L11.59 18.758C11.59 18.536 11.442 18.388 11.221 18.388L11.339 18.388L11.339 9.342L11.221 9.342C11.442 9.342 11.59 9.236 11.59 8.972L11.59 7.865L12.403 7.865L12.403 8.972C12.403 9.236 12.511 9.342 12.732 9.342L12.806 9.342L12.806 18.388L12.732 18.388C12.511 18.388 12.403 18.536 12.403 18.758L12.403 19.865L11.59 19.865ZM6.76 19.865L6.76 18.758C6.76 18.536 6.612 18.388 6.391 18.388L6.317 18.388L6.317 9.342L6.391 9.342C6.612 9.342 6.76 9.236 6.76 8.972L6.76 7.865L7.534 7.865L7.534 8.972C7.534 9.236 7.682 9.342 7.903 9.342L7.977 9.342L7.977 18.388L7.903 18.388C7.682 18.388 7.534 18.536 7.534 18.758L7.534 19.865L6.76 19.865ZM10.447 18.388L8.751 18.388L8.751 9.342L10.447 9.342L10.447 18.388ZM10.852 7.902L10.852 8.64L10.778 8.64L8.345 8.64L8.271 8.64L8.271 7.902L10.852 7.902ZM8.271 19.127L8.345 19.127L10.778 19.127L10.852 19.127L10.852 19.865L8.271 19.865L8.271 19.127ZM15.304 18.388L13.643 18.388L13.643 9.342L15.304 9.342L15.304 18.388ZM15.719 7.902L15.719 8.64L15.645 8.64L13.211 8.64L13.138 8.64L13.138 7.902L15.719 7.902ZM13.138 19.127L13.211 19.127L15.645 19.127L15.719 19.127L15.719 19.865L13.138 19.865L13.138 19.127ZM18.179 19.127L18.041 19.127L20.475 19.127L20.548 19.127L20.548 19.865L18.179 19.865L18.179 19.127ZM20.106 18.388L18.41 18.388L18.41 9.342L20.106 9.342L20.106 18.388ZM20.548 8.603L20.475 8.603L18.041 8.603L18.179 8.603L18.179 7.865L20.548 7.865L20.548 8.603ZM11.995 0.739L21.913 5.431L2.077 5.431L11.995 0.739ZM2.041 6.258L21.95 6.258L21.95 7.164C21.248 7.164 8.014 7.127 7.829 7.164C7.792 7.164 6.207 7.164 2.041 7.164L2.041 6.258ZM6.023 7.902L6.023 8.64L5.949 8.64L3.515 8.64L3.441 8.64L3.441 7.902L6.023 7.902ZM4.094 9.342L5.757 9.342L5.757 18.388L4.094 18.388L4.094 9.342ZM3.441 19.127L3.515 19.127L5.949 19.127L6.023 19.127L6.023 19.865L3.441 19.865L3.441 19.127ZM2.041 20.748C7.46 20.748 1.562 20.748 21.95 20.748L21.95 21.445L2.041 21.445L2.041 20.748ZM23.239 23.224L0.751 23.224L0.751 22.275L1.671 22.275L22.346 22.275L23.239 22.275L23.239 23.224Z" />
</g>
<g class="root" id="cta_star" data-name="cta-star">
	<path class="fill-secondary" d="M23.864 9.05a0.708 0.708 0 0 0-0.572-0.293h-0.002l-8.123 0.016l-2.498-7.733a0.706 0.706 0 0 0-1.343 0l-2.495 7.733l-8.123-0.016h-0.002a0.706 0.706 0 0 0-0.413 1.278l6.582 4.763l-2.527 7.724a0.706 0.706 0 0 0 0.452 0.89a0.709 0.709 0 0 0 0.636-0.101L11.999 18.523l6.567 4.79a0.699 0.699 0 0 0 0.414 0.134a0.738 0.738 0 0 0 0.111-0.009a0.706 0.706 0 0 0 0.561-0.916l-2.527-7.724L23.707 10.035a0.706 0.706 0 0 0 0.158-0.985Zm-0.355 0.713l-6.781 4.906l2.604 7.958a0.37 0.37 0 0 1-0.569 0.414L11.999 18.108l-6.761 4.934a0.369 0.369 0 0 1-0.547-0.131a0.366 0.366 0 0 1-0.022-0.282l2.604-7.958l-6.781-4.906a0.37 0.37 0 0 1 0.217-0.669h0l8.368 0.017l2.57-7.966a0.37 0.37 0 0 1 0.703 0l2.573 7.967l8.368-0.017h0a0.371 0.371 0 0 1 0.299 0.153a0.37 0.37 0 0 1-0.083 0.516Z" />
</g>
<g class="root" id="defense" data-name="defense">
	<path d="M7.707 5.405H16.675a0.3 0.3 0 0 0 0-0.6H7.707a0.3 0.3 0 0 0 0 0.6ZM21.106 6.335H7.706a0.3 0.3 0 0 0 0 0.6h13.401a0.3 0.3 0 0 0 0-0.6ZM0.301 10.031H23.688a0.299 0.299 0 0 0 0.3-0.301V1.688a0.299 0.299 0 0 0-0.3-0.301H21.252V0.3a0.3 0.3 0 1 0-0.6 0v1.087H3.311V0.3a0.3 0.3 0 1 0-0.6 0v1.087H0.301a0.299 0.299 0 0 0-0.3 0.301V9.731a0.299 0.299 0 0 0 0.3 0.301Zm0.3-8.043H23.388V9.431H0.6Zm4.669 3.58H3.477l0.603-0.604A0.3 0.3-3.975 0 0 3.658 4.541l-1.115 1.116a0.325 0.325 0 0 0-0.066 0.098a0.302 0.302 0 0 0 0 0.23a0.291 0.291 0 0 0 0.066 0.098L3.658 7.198a0.3 0.3 0 1 0 0.424-0.424l-0.603-0.604H5.271a0.3 0.3 0 0 0 0-0.6ZM0.301 23.4a0.301 0.301 0 0 0 0 0.6H23.688a0.301 0.301 0 0 0 0-0.6H20.665V20.652h2.369A0.969 0.969-3.975 0 0 23.999 19.684V18.571a0.299 0.299 0 0 0-0.3-0.301H23.305V14.012A2.062 2.062-3.975 0 0 21.245 11.952H19.485a2.062 2.062 0 0 0-2.059 2.06V18.271H17.03a0.299 0.299 0 0 0-0.3 0.301v0.59H15.638V18.571a0.299 0.299 0 0 0-0.3-0.301H14.94V14.012a2.062 2.062 0 0 0-2.059-2.06H11.12a2.062 2.062 0 0 0-2.059 2.06V18.271H8.665a0.299 0.299 0 0 0-0.3 0.301v0.59H7.273V18.571a0.299 0.299 0 0 0-0.3-0.301H6.577V14.012a2.062 2.062 0 0 0-2.059-2.06H2.756a2.062 2.062 0 0 0-2.059 2.06V18.271H0.301a0.299 0.299 0 0 0-0.3 0.301v1.113a0.969 0.969 0 0 0 0.968 0.968h2.369v2.749Zm19.765 0H12.301V20.652h2.369a0.966 0.966 0 0 0 0.96-0.891h1.11a0.966 0.966 0 0 0 0.959 0.891H20.065ZM18.027 14.012A1.462 1.462-3.975 0 1 19.485 12.551H21.245a1.462 1.462 0 0 1 1.459 1.46V18.271H18.027ZM17.329 18.87H23.401v0.814a0.368 0.368 0 0 1-0.368 0.368H17.698a0.368 0.368 0 0 1-0.367-0.368ZM9.66 14.012A1.462 1.462-3.975 0 1 11.12 12.551h1.762a1.461 1.461 0 0 1 1.459 1.46V18.271h-4.682ZM8.966 18.87H15.037v0.814a0.368 0.368 0 0 1-0.368 0.368H9.333a0.368 0.368 0 0 1-0.368-0.368ZM1.297 14.012A1.461 1.461-3.975 0 1 2.756 12.551h1.762a1.462 1.462 0 0 1 1.459 1.46V18.271H1.297ZM0.6 19.684V18.87H6.673v0.814a0.368 0.368 0 0 1-0.367 0.368H0.968a0.368 0.368 0 0 1-0.368-0.368Zm3.336 0.968h2.369a0.966 0.966 0 0 0 0.959-0.891h1.108a0.966 0.966 0 0 0 0.959 0.891h2.369v2.749H3.937Z" />
</g>
<g class="root" id="description" data-name="description">
	<path d="M0 20.71L0 3.29L24 3.29L24 20.71L0 20.71ZM22.065 5.221L1.935 5.221L1.935 18.779L22.065 18.779L22.065 5.221ZM13.553 16.835L3.875 16.835L3.875 14.903L13.553 14.903L13.553 16.835ZM3.875 11.028L20.126 11.028L20.126 12.971L3.875 12.971L3.875 11.028ZM3.875 7.165L20.126 7.165L20.126 9.097L3.875 9.097L3.875 7.165Z" />
</g>
<g class="root" id="edit" data-name="edit">
	<path d="M22.976 23.999L1.014 23.999C0.454 23.999-0.005 23.541-0.005 22.981L-0.005 1.019C-0.005 0.458 0.454-0.001 1.014-0.001L11.969-0.001C12.53-0.001 12.989 0.458 12.989 1.019C12.989 1.579 12.53 2.038 11.969 2.038L1.982 2.038L1.982 22.012L21.906 22.012L21.906 12.025C21.906 11.465 22.365 11.006 22.925 11.006C23.485 11.006 23.945 11.465 23.995 12.025L23.995 22.981C23.995 23.541 23.537 23.999 22.976 23.999ZM22.976 8.713C22.415 8.713 21.957 8.254 21.957 7.693L21.957 3.465L12.683 12.738C12.479 12.942 12.224 13.044 11.969 13.044C11.715 13.044 11.46 12.942 11.256 12.738C10.849 12.331 10.849 11.719 11.256 11.312L20.479 2.088L16.25 2.088C15.689 2.088 15.231 1.63 15.231 1.069C15.231 0.509 15.689 0.051 16.25 0.051L22.874 0.051C22.925 0.051 23.027 0.051 23.078 0.051C23.129 0.051 23.129 0.051 23.18 0.051C23.231 0.101 23.231 0.101 23.281 0.101C23.333 0.101 23.333 0.152 23.384 0.152C23.435 0.152 23.485 0.203 23.485 0.203C23.587 0.305 23.689 0.407 23.74 0.509C23.791 0.509 23.791 0.559 23.791 0.559C23.791 0.611 23.842 0.611 23.842 0.662C23.893 0.713 23.893 0.713 23.893 0.764C23.893 0.815 23.945 0.815 23.995 0.865C23.995 0.917 23.995 1.019 23.995 1.069L23.995 7.693C23.995 8.254 23.537 8.713 22.976 8.713Z" />
</g>
<g class="root" id="fax" data-name="fax">
	<path d="M24 20.688v1.478a0.368 0.368 0 0 1-0.363 0.363H17.447a0.368 0.368 0 0 1-0.363-0.363V20.688l0.167-1.534s-1.59-1.032-5.243-1.032-5.243 1.032-5.243 1.032l0.167 1.534v1.451a0.368 0.368 0 0 1-0.363 0.363H0.348A0.368 0.368-1.953 0 1 0 22.139V20.661a6.674 6.674 0 0 1 1.534-4.1C3.361 15.333 7.852 14.273 11.993 14.273s8.647 1.088 10.487 2.287A6.904 6.904-1.953 0 1 24 20.688ZM21.169 14.691A0.82 0.82-1.953 0 1 20.361 13.883v-4.184H14.559a0.82 0.82 0 0 1-0.809-0.809V3.089H3.626V13.883a0.809 0.809 0 1 1-1.618 0V2.28a0.82 0.82 0 0 1 0.809-0.809H14.559a0.162 0.162 0 0 1 0.098 0.031a0.694 0.694 0 0 1 0.474 0.207L21.755 8.318a0.757 0.757 0 0 1 0.21 0.477a0.173 0.173 0 0 1 0.028 0.095V13.883A0.82 0.82-1.953 0 1 21.169 14.691ZM19.187 8.053L15.368 4.233V8.053Z" />
</g>
<g class="root" id="featured" data-name="featured">
	<path class="fill-button" d="M-0.539 0V24L5 19.384L10.539 24V0Z" />
	<polygon points="6.819 16.855 5 15.853 3.181 16.855 3.583 14.843 2.06 13.444 4.123 13.2 5 11.34 5.877 13.2 7.945 13.449 6.417 14.843 6.819 16.855" class="fill-white" />
</g>
<g class="root" id="free" data-name="free">
	<path class="fill-secondary" d="M22.805 7.564H18.273v-0.93h-1.404v-1.774a1.343 1.343 0 0 0-1.341-1.341H8.469a1.343 1.343 0 0 0-1.342 1.341v1.774h-1.403v0.93H1.195a1.196 1.196 0 0 0-1.195 1.194v4.526H0.878v7.196h22.243V13.286H24V8.76A1.196 1.196-135.053 0 0 22.805 7.564Zm-16.367-0.217h1.403v-2.486a0.629 0.629 0 0 1 0.629-0.629h7.059a0.629 0.629 0 0 1 0.628 0.629v2.486h1.404v0.217H14.9v-2.076h-5.802v2.076H6.438Zm7.749-1.146v1.364H9.811v-1.364Zm8.22 13.567H1.591V13.286h7.965v2.939h4.887V13.286h7.965Zm-12.139-4.257v-2.227h3.462v2.227ZM23.287 12.573H0.711V8.76A0.484 0.484-135.053 0 1 1.195 8.276h21.61a0.482 0.482 0 0 1 0.481 0.481Z" />
</g>
<g class="root" id="heart" data-name="heart">
	<path d="M18.227 1.576a5.72 5.72 0 0 0-4.084 1.696l-2.143 2.149l-2.143-2.149A5.772 5.772-1.23 0 0 0 7.361v0.802a5.747 5.747 0 0 0 1.692 4.092L11.714 22.308a0.4 0.4 0 0 0 0.568 0L18.684 15.892l3.624-3.637a5.747 5.747 0 0 0 1.692-4.092V7.361A5.791 5.791-1.23 0 0 18.227 1.575ZM11.999 21.458L2.256 11.691a4.957 4.957 0 0 1-1.456-3.528V7.361a4.973 4.973 0 0 1 8.492-3.524l2.143 2.149l-1.788 1.788a1.534 1.534 0 0 0 0.656 2.554L7.247 13.389A1.534 1.534-1.23 0 0 8.33 16.009h0.068v0.076a1.538 1.538 0 0 0 1.532 1.528h0.068v0.076a1.538 1.538 0 0 0 1.532 1.528h0.068v0.076a1.531 1.531 0 0 0 1.104 1.467ZM23.199 8.162a4.957 4.957 0 0 1-1.456 3.528l-3.627 3.632L13.648 19.802a0.73 0.73 0 1 1-1.032-1.034L17.083 14.289L16.514 13.719L12.047 18.198A0.73 0.73-1.23 1 1 11.015 17.166L15.483 12.685l-0.568-0.57L10.447 16.594a0.73 0.73 0 0 1-1.032-1.034L13.883 11.082L13.315 10.512L8.847 14.991a0.73 0.73 0 0 1-1.032-1.034L13.484 8.274l-0.568-0.57L11.248 9.376a0.73 0.73 0 0 1-1.032-1.035l2.068-2.073l2.424-2.434a4.976 4.976 0 0 1 8.492 3.524Z" />
</g>
<g class="root" id="home" data-name="home">
	<path style="stroke-width: 2;" d="M23.871 13.328l-11.548-11.974a0.437 0.437 0 0 0-0.32-0.137h0a0.443 0.443 0 0 0-0.328 0.133l-11.548 11.98a0.448 0.448 0 0 0 0.008 0.635a0.472 0.472 0 0 0 0.328 0.121a0.448 0.448 0 0 0 0.312-0.136l1.501-1.557V22.331a0.456 0.456 0 0 0 0.456 0.449h6.332a0.448 0.448 0 0 0 0.448-0.449V15.363h4.968v6.969a0.456 0.456 0 0 0 0.456 0.449h6.332a0.456 0.456 0 0 0 0.456-0.449V12.39l1.493 1.553a0.464 0.464 0 0 0 0.32 0.139h0.008a0.445 0.445 0 0 0 0.328-0.755h0Zm-8.935 1.137h-5.871a0.448 0.448 0 0 0-0.448 0.448v6.972h-5.439V11.452l8.816-9.151l8.824 9.151V21.883h-5.439v-6.972a0.448 0.448 0 0 0-0.448-0.448h0Z" />
</g>
<g class="root" id="info" data-name="info">
	<path d="M11.997 0A12 12-23.343 1 0 24 12A12 12-23.343 0 0 11.997 0Zm0 22.908a10.91 10.91 0 1 1 10.91-10.91A10.91 10.91-23.343 0 1 11.997 22.909ZM14.179 8.728H8.725v2.575l1.637 0.545v4.122l-1.637 0.545v2.575H15.815V16.517L14.179 15.971Zm0.545 8.574v0.698H9.816V17.303l1.637-0.545V11.062l-1.637-0.545V9.819h3.272V16.755ZM11.997 8.183a2.182 2.182 0 1 0-2.182-2.182h0A2.184 2.184-23.343 0 0 11.997 8.183Zm0-3.272a1.091 1.091 0 1 1-1.091 1.091A1.091 1.091-23.343 0 1 11.997 4.91Z" />
</g>
<g class="root" id="locations" data-name="locations">
	<path d="M14.985 6.512a2.983 2.983 0 1 0-2.983 2.983a2.987 2.987 0 0 0 2.983-2.983zm-5.26 0a2.276 2.276 0 1 1 2.276 2.277a2.279 2.279 0 0 1-2.276-2.277z" />
	<path d="M23.979 23.48l-2.88-7.55a0.353 0.353 0 0 0-0.33-0.227h-5.451c0.033-0.054 0.066-0.107 0.1-0.161 2.097-3.472 3.153-6.51 3.137-9.026a6.554 6.554 0 0 0-13.108-0.002c-0.015 2.519 1.04 5.557 3.137 9.029 0.033 0.055 0.066 0.108 0.1 0.161h-5.451a0.353 0.353 0 0 0-0.33 0.227l-2.879 7.55a0.353 0.353 0 0 0 0.33 0.479h23.294a0.353 0.353 0 0 0 0.33-0.479zm-17.825-16.968a5.847 5.847 0 1 1 11.694 0.002c0.03 5.018-4.661 11.207-5.847 12.692-1.186-1.484-5.877-7.671-5.847-12.694zm5.578 13.482a0.353 0.353 0 0 0 0.538 0a37.493 37.493 0 0 0 2.604-3.585h5.65l0.452 1.186l-11.041 3.927l-3.935-5.113h3.127a37.493 37.493 0 0 0 2.605 3.586zm-1.809 2.281h0.002l6.586-2.342l2.555 3.319h-11.89zm-6.446-5.867h1.631l4.127 5.362l-4.167 1.482h-4.201zm16.482 6.844l-2.747-3.569l4.017-1.429l1.906 4.998z" />
</g>
<g class="root" id="logo" data-name="logo">
	<path class="fill-button" d="M24 1.988a10.685 10.685 0 0 0-5.058 4.993l-0.117 0.252l-0.195 0.417a4.03 4.03 0 0 0 0.318-1.577A4.098 4.098-7.034 0 0 14.838 1.989v-0.001H24ZM15.4 13.952c-0.005-0.011-0.011-0.024-0.016-0.036l-1.847-3.97l-2.513-5.4l-0.001 0.003a0.363 0.363 0 0 0-0.019-0.045l-0.136-0.293l-0.005-0.009a4.111 4.111 0 0 0-3.654-2.215v-0.001H0v0.001a4.113 4.113 0 0 1 3.604 2.12l0.005-0.009l0.086 0.184l0.009 0.019c0.02 0.04 0.038 0.079 0.056 0.12L6.391 10.075l5.556 11.939l3.439-7.391h-0.001a0.793 0.793 0 0 0 0.082-0.354A0.813 0.813-7.034 0 0 15.4 13.952Z" />
</g>
<g class="root" id="logo_scales_" data-name="logo scales">
	<path d="M11.99 3.502C12.185 3.46 12.254 3.478 12.387 3.496C12.499 3.512 12.554 3.561 12.546 3.689C12.532 3.892 12.542 4.097 12.542 4.273C13.098 4.337 13.632 4.378 14.159 4.465C15.158 4.63 16.147 4.852 17.093 5.216C17.484 5.368 17.873 5.447 18.28 5.447C18.804 5.475 19.327 5.515 19.849 5.55C19.866 5.524 19.88 5.504 19.932 5.482C20.061 5.207 20.237 5.105 20.462 5.188C20.703 5.338 20.873 5.621 20.764 5.832C20.679 6.088 20.69 6.373 20.667 6.595C20.622 7.091 20.749 7.542 20.94 7.999C21.781 10.013 22.599 12.036 23.433 14.074C23.597 14.074 23.771 14.074 24 14.074C23.94 14.281 23.91 14.464 23.836 14.629C23.687 14.967 23.421 15.21 23.118 15.411C22.517 15.814 21.84 16.008 21.129 16.088C20.181 16.194 19.253 16.239 18.44 15.739C17.96 15.574 17.59 15.352 17.295 15.114C17.06 14.759 16.902 14.462 16.902 14.09C16.947 14.085 16.978 14.073 17.126 14.079C17.366 14.162 17.489 14.062 17.716 13.728C18.422 11.638 19.252 9.628 20.081 7.617C20.164 7.528 20.21 7.218 20.276 7.001C20.189 6.766 20.249 6.529 20.249 6.272C20.115 6.281 20.094 6.289 19.975 6.293C18.989 6.356 17.996 6.443 17.028 6.164C16.567 6.031 16.127 5.831 15.671 5.678C15.356 5.572 15.035 5.463 14.722 5.408C14.039 5.294 13.483 5.541 13.089 6.028C12.632 6.47 12.384 6.989 12.395 7.591C12.407 8.165 12.46 8.739 12.512 9.311C12.524 9.438 12.627 9.554 12.648 9.682C12.697 9.973 12.755 10.271 12.748 10.563C12.724 11.552 12.681 12.539 12.627 13.526C12.588 14.246 12.527 14.965 12.467 15.685C12.413 16.333 12.545 16.948 12.779 17.55C12.941 17.968 13.082 18.393 13.241 18.813C13.26 18.863 13.321 18.918 13.374 18.932C13.809 19.057 14.201 19.25 14.518 19.582C14.584 19.619 14.623 19.632 14.679 19.64C15.502 19.766 16.297 19.993 17.066 20.312C17.17 20.355 17.267 20.415 17.356 20.523C13.75 20.523 10.243 20.523 6.539 20.523C6.534 20.496 6.53 20.485 6.524 20.473C6.616 20.424 6.705 20.461 6.803 20.326C7.579 19.996 8.386 19.768 9.241 19.64C9.282 19.631 9.352 19.716 9.393 19.565C9.7 19.253 10.078 19.068 10.492 18.941C10.549 18.922 10.628 18.89 10.644 18.961C10.866 18.243 11.083 17.639 11.293 17.032C11.594 16.393 11.434 15.738 11.388 15.085C11.278 13.549 11.113 12.015 11.152 10.473C11.16 10.207 11.161 9.924 11.255 9.683C11.623 9.008 11.613 8.309 11.55 7.608C11.505 6.98 11.258 6.439 10.824 5.988C10.282 5.422 9.616 5.249 8.868 5.467C8.441 5.591 8.028 5.759 7.616 5.923C6.822 6.24 6.001 6.382 5.147 6.455C4.673 6.331 4.266 6.312 3.701 6.293C3.787 6.743 3.638 7.199 3.829 7.657C4.703 9.749 5.556 11.849 6.409 13.949C6.453 14.056 6.503 14.085 6.606 14.079C6.733 14.073 6.86 14.078 6.997 14.078C6.998 14.389 6.893 14.642 6.726 14.889C6.508 15.21 6.154 15.459 5.777 15.626C4.219 16.316 2.658 16.316 1.107 15.602C0.719 15.424 0.472 15.162 0.155 14.801C0.017 14.589-0.061 14.362 0.06 14.086C0.117 14.086 0.285 14.086 0.461 14.086C0.746 13.385 1.028 12.698 1.429 12.009C1.925 10.506 2.542 9.004 3.153 7.498C3.202 7.379 3.223 7.244 3.228 7.246C3.241 6.854 3.242 6.591 3.228 6.332C3.221 6.292 3.189 6.079 3.144 5.897C3.069 5.669 3.217 5.392 3.317 5.253C3.545 5.081 3.824 5.148 3.973 5.483C4.03 5.536 4.094 5.554 4.307 5.545C4.885 5.496 5.601 5.452 6.248 5.404C6.303 5.4 6.36 5.397 6.409 5.376C7.489 4.934 8.456 4.706 9.516 4.506C10.112 4.393 10.722 4.345 11.379 4.263C11.379 4.103 11.492 3.897 11.352 3.695C11.343 3.568 11.386 3.515 11.502 3.499C11.629 3.48 11.755 3.46 11.88 3.502C11.917 3.502 11.953 3.502 11.99 3.502ZM23.236 14.069C23.21 14 23.191 13.944 23.168 13.889C22.308 11.786 21.449 9.683 20.584 7.581C20.558 7.516 20.481 7.47 20.427 7.535C20.378 7.469 20.31 7.514 20.284 7.576C19.416 9.689 18.552 11.803 17.688 13.918C17.668 14.035 17.656 14.013 17.639 14.069C19.513 14.069 21.366 14.069 23.236 14.069ZM0.659 14.067C2.544 14.067 4.395 14.067 6.263 14.067C6.238 13.995 6.22 13.938 6.198 13.883C5.34 11.787 4.483 9.827 3.621 7.596C3.678 7.525 3.511 7.477 3.455 7.536C3.406 7.477 3.337 7.528 3.309 7.596C2.588 9.343 1.873 11.091 1.28 12.84C1.007 13.243 0.829 13.645 0.659 14.067Z" />
</g>
<g class="root" id="mail" data-name="mail">
	<path d="M0 3.004L24 3.004L24 20.996L0 20.996L0 3.004ZM20.041 5.253L3.958 5.253L11.999 11.699L20.041 5.253ZM2.181 6.677L2.181 18.747L21.817 18.747L21.817 6.677L11.999 14.549L2.181 6.677Z" />
</g>
<g class="root" id="media" data-name="media">
	<path d="M15.117 11.65l-4.552-2.897c-0.127-0.081-0.289-0.086-0.422-0.014C10.012 8.813 9.93 8.952 9.93 9.103v5.793c0 0.151 0.082 0.29 0.215 0.363C10.207 15.292 10.275 15.309 10.344 15.309c0.077 0 0.155-0.022 0.222-0.065l4.552-2.897C15.236 12.272 15.308 12.14 15.308 12S15.236 11.726 15.117 11.65zM10.758 14.142V9.856L14.124 12L10.758 14.142z" />
	<path d="M23.584 2.482H19.446H4.551H0.413C0.184 2.482-0.001 2.667-0.001 2.896v4.552v4.552v4.552v4.552c0 0.229 0.185 0.414 0.414 0.414h4.138h14.896h4.138c0.228 0 0.414-0.185 0.414-0.414V16.55V12V7.448V2.896C23.998 2.667 23.813 2.482 23.584 2.482zM4.137 11.586H0.827v-3.724h3.31V11.586zM0.827 12.412h3.31v3.724H0.827V12.412zM4.965 16.55V12V7.448V3.31h14.068v4.138v4.552v4.552v4.138H4.965V16.55zM23.17 11.586h-3.31v-3.724h3.31V11.586zM19.86 12.412h3.31v3.724h-3.31V12.412zM23.17 3.31v3.724h-3.31V3.31H23.17zM0.827 3.31h3.31v3.724H0.827V3.31zM0.827 20.688v-3.724h3.31v3.724H0.827zM23.17 20.688h-3.31v-3.724h3.31V20.688z" />
</g>
<g class="root" id="naturalization" data-name="naturalization">
	<path d="M18.865 0H5.135A1.002 1.002-5.705 0 0 4.131 1V23A1.002 1.002-5.705 0 0 5.135 24H18.865A1.002 1.002-5.705 0 0 19.869 23V1A1.002 1.002-5.705 0 0 18.865 0ZM5.135 0.666H18.865a0.334 0.334 0 0 1 0.335 0.334v6H4.8V1A0.335 0.335-5.705 0 1 5.135 0.666ZM18.865 23.333H5.135a0.335 0.335 0 0 1-0.335-0.334V7.666H19.2V23a0.334 0.334 0 0 1-0.335 0.334ZM9.823 5.665H14.176a0.334 0.334 0 1 0 0-0.666H9.823a0.334 0.334 0 1 0 0 0.666ZM7.145 10.333H12.502a0.334 0.334 0 1 0 0-0.666H7.145a0.334 0.334 0 1 0 0 0.666Zm0 3.667H12.502a0.334 0.334 0 1 0 0-0.666H7.145a0.334 0.334 0 1 0 0 0.666Zm5.357 3H7.145a0.334 0.334 0 1 0 0 0.666H12.502a0.334 0.334 0 1 0 0-0.666Zm-1.338 4.333H7.145a0.334 0.334 0 1 0 0 0.666H11.163a0.334 0.334 0 1 0 0-0.666Zm6.028 0H13.172a0.334 0.334 0 1 0 0 0.666H17.19a0.334 0.334 0 1 0 0-0.666ZM15.18 11H16.855a0.334 0.334 0 0 0 0.335-0.334V9a0.334 0.334 0 0 0-0.335-0.334H15.18a0.335 0.335 0 0 0-0.335 0.334v1.667a0.334 0.334 0 0 0 0.335 0.334Zm0.335-1.667h1.004v1H15.516Zm-0.335 5.334H16.855a0.334 0.334 0 0 0 0.335-0.334V12.666a0.334 0.334 0 0 0-0.335-0.334H15.18a0.335 0.335 0 0 0-0.335 0.334v1.667a0.334 0.334 0 0 0 0.335 0.334Zm0.335-1.667h1.004v1H15.516ZM15.18 18.334H16.855a0.334 0.334 0 0 0 0.335-0.334V16.333a0.334 0.334 0 0 0-0.335-0.334H15.18a0.335 0.335 0 0 0-0.335 0.334V18a0.334 0.334 0 0 0 0.335 0.334Zm0.335-1.667h1.004V17.665H15.516ZM12.167 4.333a1.338 1.338 0 1 0-0.947-0.39a1.338 1.338 0 0 0 0.947 0.39Zm0-2a0.666 0.666 0 1 1-0.669 0.666A0.669 0.669-5.705 0 1 12.167 2.334Z" />
</g>
<g class="root" id="page" data-name="page">
	<path d="M20.86 2.765H4.895a0.554 0.554 0 0 0-0.617 0.554l-0.12 14.53H0.679A0.802 0.802-6.119 0 0 0 18.585V19.605a4.188 4.188 0 0 0 4 4.095H17.477A4.065 4.065-6.119 0 0 21.537 19.605V3.381a0.678 0.678 0 0 0-0.677-0.617ZM1.234 19.605v-0.523h11.999V19.605a3.974 3.974 0 0 0 1.231 2.863H4.157A2.925 2.925-6.119 0 1 1.234 19.605Zm19.075 0a2.923 2.923 0 1 1-5.846 0V18.585c0-0.338-0.216-0.739-0.554-0.739H5.388l0.12-13.853H20.307ZM7.477 8.306h4.768a0.616 0.616 0 0 0 0-1.231H7.477a0.616 0.616 0 0 0 0 1.231Zm0 3.386H17.17a0.616 0.616 0 0 0 0-1.231H7.477a0.616 0.616 0 0 0 0 1.231Zm0 3.693H17.17a0.614 0.614 0 0 0 0-1.231H7.477a0.614 0.614 0 0 0 0 1.231Zm15.843-15.084H7.355a0.616 0.616 0 1 0 0 1.231H22.768V17.142a0.616 0.616 0 1 0 1.231 0V0.918a0.678 0.678 0 0 0-0.677-0.617Z" />
</g>
<g class="root" id="paperwork" data-name="paperwork">
	<path d="M2.888 0C2.13 0 1.512 0.621 1.512 1.384L1.512 22.616C1.512 23.379 2.13 24 2.888 24L17.052 24C17.809 24 18.428 23.379 18.428 22.616L18.428 19.626C18.433 19.614 18.436 19.602 18.44 19.589L20.14 13.15C20.848 13.204 21.566 12.812 21.713 12.042L22.48 9.16C22.515 9.026 22.435 8.89 22.302 8.855C22.302 8.854 22.3 8.854 22.3 8.854L21.336 8.596L21.734 7.09C21.898 6.476 21.427 5.875 20.764 5.695C20.74 5.689 20.716 5.687 20.692 5.688C20.547 5.652 20.411 5.633 20.34 5.652C19.988 5.688 19.363 5.959 19.242 6.418L18.886 8.164L18.428 9.496L18.428 3.858C18.428 3.857 18.428 3.856 18.428 3.855C18.428 3.851 18.428 3.847 18.428 3.844C18.428 3.839 18.427 3.835 18.427 3.83C18.426 3.826 18.426 3.821 18.425 3.816C18.424 3.813 18.424 3.81 18.423 3.806C18.422 3.801 18.421 3.796 18.419 3.791C18.419 3.788 18.418 3.785 18.418 3.783C18.416 3.778 18.414 3.975 18.412 3.928C18.411 3.898 18.41 3.87 18.409 3.842C18.407 3.79 18.404 3.749 18.402 3.744C18.4 3.742 18.399 3.74 18.398 3.738C18.395 3.732 18.392 3.727 18.388 3.722C18.387 3.72 18.386 3.718 18.384 3.716C18.381 3.711 18.377 3.706 18.373 3.701C18.372 3.699 18.37 3.698 18.369 3.696C18.365 3.691 18.36 3.686 18.356 3.682L14.943 0.076C14.744 0.051 14.713 0.032 14.679 0.208C14.674 0.178 14.667 0.148 14.661 0.122C14.644 0.07 14.625 0.04 14.607 0.028C14.601 0.025 14.595 0.2 14.589 0.2L2.888 0ZM2.888 0.55L14.344 0.55L14.344 2.724C14.344 3.486 14.961 4.107 15.72 4.107L17.93 4.107L17.93 11.379L15.94 18.916C15.939 18.916 15.939 18.918 15.939 18.918C15.938 18.923 15.937 18.928 15.936 18.932C15.935 18.936 15.935 18.939 15.934 18.943C15.934 18.948 15.933 18.952 15.933 18.956C15.933 18.96 15.932 18.964 15.932 18.968C15.932 18.972 15.932 18.977 15.932 18.981C15.932 18.986 15.932 18.99 15.932 18.994C15.932 18.999 15.933 19.045 15.933 19.098L16.234 21.565L16.198 21.565L15.406 21.565L15.166 21.128C15.098 21.07 14.947 20.964 14.827 21.031C14.956 21.054 14.754 21.087 14.731 21.128L14.641 21.292L14.55 21.128C14.483 21.07 14.331 20.964 14.212 21.031C14.171 21.054 14.138 21.087 14.116 21.128L14.061 21.219L13.934 20.902C13.885 20.982 13.74 20.71 13.612 20.85C13.548 20.785 13.496 20.837 13.471 20.902L13.453 20.956L13.326 20.405C13.296 20.452 13.162 20.186 13.123 20.216C12.935 20.238 12.862 20.311 12.841 20.405L12.614 21.377L12.388 20.405C12.358 20.452 12.224 20.186 12.09 20.216C11.997 20.238 11.924 20.311 11.903 20.405L11.691 21.312L11.452 19.855C11.43 19.719 11.301 19.627 11.166 19.65C11.061 19.668 10.979 19.75 10.962 19.855L10.739 21.219L10.516 19.855C10.496 19.735 10.393 19.646 10.306 19.646C10.15 19.646 10.046 19.734 10.093 19.855L9.747 21.552L9.122 21.552C8.984 21.552 8.873 21.664 8.873 21.802C8.873 21.94 8.984 22.052 9.122 22.052L9.957 22.052C10.079 22.053 10.183 21.964 10.203 21.843L10.343 21.434L10.348 21.843C10.368 21.964 10.472 22.053 10.594 22.052L10.907 22.052C11.13 22.053 11.134 21.964 11.154 21.843L11.226 21.434L11.298 21.843C11.318 21.964 11.422 22.052 11.766 22.052L11.856 22.052C11.972 22.053 12.072 21.973 12.099 21.86L12.171 21.558L12.244 21.86C12.468 21.973 12.37 22.053 12.486 22.052L12.8 22.052C12.915 22.053 13.016 21.973 13.258 21.86L13.114 21.558L13.187 21.86C13.217 21.994 13.35 22.079 13.484 22.049C13.565 22.031 13.631 21.973 13.661 21.896L13.734 21.687L13.806 21.896C13.854 22.026 13.998 22.091 14.126 22.042C14.181 22.22 14.226 21.983 14.255 21.932L14.346 21.935L14.436 21.932C14.503 22.053 14.654 22.096 14.833 22.029C14.815 22.062 14.848 21.973 14.871 21.932L14.961 21.935L15.052 21.932C15.096 22.112 15.179 22.06 15.343 22.06L16.207 22.06L16.718 22.06C16.568 22.06 16.6 22.06 16.63 22.06C16.648 22.06 16.663 22.059 16.678 22.059C16.619 22.054 16.695 22.062 16.737 21.932L17.937 20.304L17.937 22.608C17.937 23.102 17.55 23.491 17.059 23.491L2.896 23.491C2.405 23.491 2.018 23.102 2.018 22.608L2.018 1.375C2.018 0.882 2.405 0.492 2.896 0.492L2.888 0.55ZM14.841 0.854L15.354 1.369L17.578 3.606L15.719 3.606C15.229 3.606 14.841 3.216 14.841 2.723L14.841 0.854ZM4.071 4.137C3.934 4.136 3.822 4.248 3.821 4.386C3.821 4.745 3.932 4.637 4.069 4.638C4.07 4.638 4.07 4.638 4.071 4.638L9.872 4.638C10.01 4.638 10.122 4.526 10.122 4.388C10.122 4.25 10.011 4.137 9.874 4.137C9.873 4.137 9.873 4.137 9.872 4.137L4.071 4.137ZM4.071 5.978C3.934 5.978 3.822 6.09 3.822 6.228C3.822 6.366 3.934 6.478 4.071 6.478L4.071 6.478L15.726 6.478C15.863 6.478 15.975 6.366 15.975 6.228C15.975 6.09 15.863 5.978 15.726 5.978L4.071 5.978ZM20.354 6.142C20.445 6.141 20.743 6.152 20.64 6.178C21.096 6.306 21.336 6.672 21.259 6.961L20.863 8.465L20.808 8.45L19.322 8.046L19.72 6.541C19.836 6.324 20.01 6.158 20.314 6.142C20.327 6.142 20.332 6.141 20.35 6.141L20.354 6.142ZM4.071 7.824C3.934 7.824 3.822 7.935 3.821 8.074C3.821 8.212 3.932 8.324 4.069 8.324C4.07 8.324 4.07 8.324 4.071 8.324L15.869 8.324C16.007 8.325 16.118 8.214 16.119 8.075C16.12 7.937 16.008 7.824 15.871 7.824C15.87 7.824 15.87 7.824 15.869 7.824L4.071 7.824ZM19.196 8.53L20.735 8.949L20.644 9.277L19.707 12.799C19.702 12.817 19.699 12.835 19.698 12.854L18.018 19.212L16.479 18.793L17.222 15.983L18.414 11.465C18.415 11.465 18.415 11.465 18.415 11.464L19.196 8.53ZM21.216 9.078L21.937 9.482L21.233 11.914C21.106 12.366 20.715 12.639 20.338 12.639L21.113 9.464L21.216 9.078ZM4.071 9.664C3.934 9.664 3.822 9.777 3.822 9.915C3.822 10.053 3.934 10.165 4.071 10.165L4.071 10.165L15.726 10.165C15.863 10.165 15.975 10.053 15.975 9.915C15.975 9.777 15.863 9.664 15.726 9.664L4.071 9.664ZM4.071 11.62C3.934 11.615 3.822 11.623 3.821 11.865C3.821 11.9 3.932 12.12 4.069 12.125C4.07 12.125 4.07 12.125 4.071 12.125L15.869 12.125C16.007 12.13 16.118 11.902 16.119 11.882C16.12 11.625 16.008 11.625 15.871 11.62C15.87 11.62 15.87 11.62 15.869 11.62L4.071 11.62ZM4.071 13.353C3.934 13.353 3.822 13.465 3.822 13.603C3.822 13.742 3.934 13.854 4.071 13.854L4.071 13.854L15.726 13.854C15.863 13.854 15.975 13.742 15.975 13.603C15.975 13.465 15.863 13.353 15.726 13.353L4.071 13.353ZM4.071 15.201C3.934 15.201 3.822 15.313 3.822 15.451C3.822 15.589 3.934 15.701 4.071 15.701L4.071 15.701L15.869 15.701C16.007 15.701 16.118 15.589 16.118 15.451C16.118 15.313 16.007 15.201 15.869 15.201L15.869 15.201L4.071 15.201ZM16.47 19.315L17.893 19.672L16.874 20.902L16.685 21.157L16.47 19.315Z" />
</g>
<g class="root" id="pdf" data-name="pdf">
	<path d="M18.803 11.142C19.275 11.142 19.657 10.759 19.657 10.285L19.657 7.714C19.657 7.487 19.566 7.268 19.406 7.107L12.569 0.25C12.49 0.171 12.396 0.108 12.293 0.066C12.19 0.022 12.078 0 11.966 0L1.71 0C1.239 0 0.857 0.384 0.857 0.857L0.857 23.142C0.857 23.616 1.239 24 1.71 24L18.803 24C19.275 24 19.657 23.616 19.657 23.142L19.657 20.571C19.657 20.098 19.275 19.714 18.803 19.714C18.33 19.714 17.948 20.098 17.948 20.571L17.948 22.285L2.566 22.285L2.566 1.715L11.111 1.715L11.111 7.714C11.111 8.187 11.494 8.571 11.966 8.571L17.948 8.571L17.948 10.285C17.948 10.759 18.33 11.142 18.803 11.142ZM12.82 2.926L16.739 6.857L12.82 6.857L12.82 2.926ZM12.102 12.857C13.045 12.793 13.859 13.508 13.923 14.453C13.928 14.526 13.928 14.6 13.923 14.674C13.968 15.619 13.241 16.422 12.299 16.469C12.228 16.472 12.158 16.472 12.087 16.469L11.233 16.469L11.233 18L9.88 18L9.88 12.857L12.102 12.857ZM11.248 15.428L11.701 15.428C12.248 15.428 12.556 15.188 12.556 14.631C12.594 14.231 12.304 13.874 11.904 13.834C11.857 13.829 11.809 13.829 11.761 13.834L11.206 13.834L11.248 15.428ZM16.624 12.857C18.247 12.857 18.948 13.834 18.948 15.428C18.948 17.022 18.222 18 16.624 18L14.53 18L14.53 12.857L16.624 12.857ZM15.889 16.937L16.393 16.937C17.051 16.937 17.572 16.688 17.572 15.437C17.572 14.58 17.341 13.911 16.402 13.911L15.898 13.911L15.889 16.937ZM19.657 18L19.657 12.857L23.144 12.857L23.144 13.928L21.008 13.928L21.008 15.077L22.948 15.077L22.948 16.114L21.008 16.114L21.008 18L19.657 18Z" />
</g>
<g class="root" id="phone" data-name="phone">
	<path d="M2.258 1.369L3.51 0.118a0.446 0.446 0 0 1 0.604 0L9.365 5.369a0.46 0.46 0 0 1 0 0.619l-1.252 1.252l-1.439 1.151a12.416 12.416 0 0 0 3.568 5.323A12.502 12.502-3.18 0 0 15.523 17.281l1.165-1.439l1.223-1.223a0.46 0.46 0 0 1 0.619 0L23.824 19.957a0.446 0.446 0 0 1 0 0.604l-1.252 1.252a8.028 8.028 0 0 1-4.776 2.187c-2.59-0.532-7.294-3.438-10.79-6.934S0.604 8.75 0.057 6.175A8.2 8.2-3.18 0 1 2.258 1.369Z" />
</g>
<g class="root" id="pin" data-name="pin">
	<path d="M4.51 13.907l0 0.067c0 0.08 0.12 0.16 0.173 0.253l6.525 9.34a1.014 1.014 0 0 0 1.414 0.253a0.774 0.774 0 0 0 0.253-0.253l6.511-9.34c0.067-0.08 0.12-0.173 0.187-0.24l0-0.067h0a9.019 9.019 0 1 0-15.145 0ZM12.091 5.273a3.775 3.775 0 1 1-2.668 1.107A3.749 3.749 3.069 0 1 12.091 5.273Z" />
</g>
<g class="root" id="play" data-name="play">
	<path d="M22.727 13.882L3.271 23.768a2.24 2.24 0 0 1-3.018-1.052A2.187 2.187 0.011 0 1 0.011 21.77V2.209A2.177 2.177 0.011 0 1 1.062 0.316A2.65 2.65 0.011 0 1 2.219 0A3.155 3.155 0.011 0 1 3.166 0.21L22.727 9.886a2.314 2.314 0 0 1 1.262 1.998A2.398 2.398 0.011 0 1 22.727 13.882Z" />
</g>
<g class="root" id="playpause" data-name="playpause">
	<path d="M12 0A12 12-2.4 1 0 24 12A11.985 11.985-2.4 0 0 12 0ZM10.881 12.694L5.76 15.654a0.797 0.797 0 0 1-1.2-0.693V9.039A0.797 0.797-2.4 0 1 5.76 8.346l5.148 2.961a0.812 0.812 0 0 1-0.027 1.388Zm4.533 2.212a0.803 0.803 0 0 1-0.801 0.801H13.787a0.785 0.785 0 0 1-0.801-0.801V9.094a0.785 0.785 0 0 1 0.801-0.801h0.828a0.803 0.803 0 0 1 0.801 0.801Zm4.026 0a0.785 0.785 0 0 1-0.801 0.801H17.813a0.785 0.785 0 0 1-0.801-0.801l0-5.812a0.785 0.785 0 0 1 0.801-0.801h0.828A0.785 0.785-2.4 0 1 19.44 9.094Z" />
</g>
<g class="root" id="question" data-name="question">
	<path d="M17.158 11.826C16.874 12.186 16.447 12.536 16.086 12.881C15.091 13.827 14.097 14.9 14.097 15.759C14.097 16.931 13.057 17.75 11.941 17.75C11.059 17.75 9.921 16.931 9.921 15.759C9.921 13.21 11.782 11.668 13.28 10.014C13.617 9.694 13.934 9.391 14.209 9.102C14.75 8.534 15.048 7.791 15.048 7.011C15.048 5.323 13.654 3.951 11.941 3.951C10.23 3.951 8.836 5.323 8.836 7.011C8.836 8.108 7.93 9.002 6.974 9.002C5.7 9.002 4.909 8.108 4.909 7.011C4.909 3.212 8.001 0 11.941 0C15.883 0 19.091 3.212 19.091 7.011C19.091 8.806 18.404 10.517 17.158 11.826ZM11.941 0.822C8.478 0.822 5.721 3.598 5.721 7.011C5.721 7.639 6.177 8.148 6.974 8.148C7.453 8.148 7.97 7.639 7.97 7.011C7.97 5.02 9.751 3.098 11.941 3.098C14.133 3.098 15.914 5.02 15.914 7.011C15.914 8.256 15.533 8.958 14.841 9.686C14.55 10.061 14.224 10.302 13.88 10.63C12.43 12.217 10.787 13.572 10.787 15.759C10.787 16.388 11.304 16.897 11.941 16.897C12.58 16.897 13.159 16.388 13.159 15.759C13.159 14.539 14.311 13.383 15.485 12.266C15.834 11.933 16.197 11.589 16.557 11.242C17.621 10.091 18.224 8.589 18.224 7.011C18.224 3.598 15.656 0.822 11.941 0.822ZM11.941 19.08C13.319 19.08 14.439 20.183 14.439 21.54C14.439 22.897 13.319 24 11.941 24C10.564 24 9.445 22.897 9.445 21.54C9.445 20.183 10.565 19.08 11.941 19.08ZM11.941 23.188C12.841 23.188 13.573 22.426 13.573 21.54C13.573 20.654 12.842 19.934 11.941 19.934C11.042 19.934 10.311 20.654 10.311 21.54C10.311 22.426 11.042 23.188 11.941 23.188Z" />
</g>
<g class="root" id="quote_left" data-name="quote left">
	<path d="M8.905 13.429V23.053H0V15.439c0-4.125 0.479-7.086 1.493-8.937A12.563 12.563-17.368 0 1 7.627 0.948l2.027 3.227a7.16 7.16 0 0 0-3.734 3.173c-0.801 1.376-1.228 3.438-1.334 6.082Zm14.347 0V23.053h-8.905V15.439c0-4.125 0.479-7.086 1.493-8.937A12.563 12.563-17.368 0 1 21.973 0.948l2.027 3.227a7.16 7.16 0 0 0-3.734 3.173c-0.801 1.376-1.228 3.438-1.334 6.082Z" />
</g>
<g class="root" id="quote_right" data-name="quote right">
	<path d="M23.981 8.638a37.14 37.14 0 0 1-0.669 8.267a5.683 5.683 0 0 1-2.793 3.836a14.582 14.582 0 0 1-6.666 1.155V17.643q2.458 0 3.24-1.08a7.602 7.602 0 0 0 0.781-4.134v-1.118h-3.799V2.076h9.903Zm-13.852 0a37.103 37.103 0 0 1-0.671 8.267a5.683 5.683 0 0 1-2.793 3.836a14.578 14.578 0 0 1-6.666 1.155V17.643a3.728 3.728 0 0 0 3.165-1.08a7.596 7.596 0 0 0 0.783-4.134v-1.118h-3.724V2.076h9.903Z" />
</g>
<g class="root" id="quotes" data-name="quotes">
	<path d="M3.514 4.982C1.561 4.982 0 6.527 0 8.559L0 11.776C0 13.607 1.561 15.284 3.514 15.284L5.001 15.284L5.001 18.572C4.996 18.813 5.185 19.013 5.424 19.019C5.43 19.019 5.437 19.019 5.443 19.019C6.099 19.019 7.003 18.682 7.324 18.2C7.928 17.717 8.516 17.178 9.032 16.326C10.062 14.855 10.838 13.074 10.838 11.772L10.838 8.559C10.838 6.527 9.277 4.982 7.324 4.982L3.514 4.982L3.514 4.982ZM16.675 4.982C14.722 4.982 13.161 6.527 13.161 8.559L13.161 11.776C13.161 13.607 14.722 15.284 16.675 15.284L18.163 15.284L18.163 18.572C18.157 18.813 18.347 19.013 18.585 19.018C18.587 19.018 18.591 19.019 18.592 19.019C19.248 19.019 19.881 18.682 20.722 18.2C21.089 17.717 22.029 17.178 22.193 16.326C23.327 14.855 24 13.074 24 11.772L24 8.559C24 6.527 22.56 4.982 20.722 4.982L16.675 4.982L16.675 4.982ZM3.514 5.731L3.526 5.731L7.324 5.731C8.791 5.731 9.977 6.974 9.977 8.559L9.977 11.776C9.977 12.882 9.273 14.469 8.319 15.83C7.842 16.511 7.311 17.105 6.795 17.517C6.459 17.786 6.155 17.943 5.874 18.039L5.874 14.85C5.878 14.608 5.69 14.408 5.451 14.404C5.448 14.404 5.446 14.404 5.443 14.404L3.514 14.404C2.047 14.404 0.86 13.464 0.86 11.776L0.86 8.559C0.86 6.975 2.047 5.731 3.514 5.731L3.514 5.731ZM16.675 5.731L20.722 5.731C21.953 5.731 23.14 6.974 23.14 8.559L23.14 11.776C23.14 12.882 22.512 14.469 21.48 15.83C21.003 16.511 20.6 17.105 19.957 17.517C19.626 17.781 19.629 17.93 19.034 18.026L19.034 14.85C19.041 14.608 18.851 14.408 18.613 14.404C18.606 14.404 18.599 14.404 18.592 14.404L16.675 14.404C15.209 14.404 14.021 13.464 14.021 11.776L14.021 8.559C14.021 6.975 15.209 5.731 16.675 5.731L16.675 5.731Z" />
</g>
<g class="root" id="ribbon" data-name="ribbon">
	<path id="Path_339" class="cls-1" d="M21.109 0.005H2.68A0.617 0.617 1.993 0 0 1.993 0.529A0.384 0.384 1.993 0 0 1.993 0.692V23.275a0.803 0.803 0 0 0 0.884 0.721a0.838 0.838 0 0 0 0.5-0.256l8.749-8.284L20.609 23.729a0.803 0.803 0 0 0 1.163 0a0.733 0.733 0 0 0 0.244-0.5V0.692a0.733 0.733 0 0 0-0.698-0.686Z" />
</g>
<g class="root" id="search" data-name="search">
	<path d="M2.77 8.945a6.153 6.153 0 1 1 1.802 4.376A5.954 5.954-858.873 0 1 2.77 8.945Zm13.318 6.177l-0.384-0.384a8.546 8.546 0 0 0 2.124-5.792a8.69 8.69 0 0 0-2.574-6.338a8.524 8.524 0 0 0-6.306-2.606a8.9 8.9 0 0 0-8.947 8.945a8.521 8.521 0 0 0 2.607 6.306a8.681 8.681 0 0 0 6.338 2.574a8.546 8.546 0 0 0 5.792-2.123l0.384 0.384v1.094l6.818 6.818l2.06-2.06l-6.818-6.818Z" />
</g>
<g class="root" id="site" data-name="site">
	<path d="M22.976 23.999L1.014 23.999C0.454 23.999-0.005 23.541-0.005 22.981L-0.005 1.019C-0.005 0.458 0.454-0.001 1.014-0.001L11.969-0.001C12.53-0.001 12.989 0.458 12.989 1.019C12.989 1.579 12.53 2.038 11.969 2.038L1.982 2.038L1.982 22.012L21.906 22.012L21.906 12.025C21.906 11.465 22.365 11.006 22.925 11.006C23.485 11.006 23.945 11.465 23.995 12.025L23.995 22.981C23.995 23.541 23.537 23.999 22.976 23.999ZM22.976 8.713C22.415 8.713 21.957 8.254 21.957 7.693L21.957 3.465L12.683 12.738C12.479 12.942 12.224 13.044 11.969 13.044C11.715 13.044 11.46 12.942 11.256 12.738C10.849 12.331 10.849 11.719 11.256 11.312L20.479 2.088L16.25 2.088C15.689 2.088 15.231 1.63 15.231 1.069C15.231 0.509 15.689 0.051 16.25 0.051L22.874 0.051C22.925 0.051 23.027 0.051 23.078 0.051C23.129 0.051 23.129 0.051 23.18 0.051C23.231 0.101 23.231 0.101 23.281 0.101C23.333 0.101 23.333 0.152 23.384 0.152C23.435 0.152 23.485 0.203 23.485 0.203C23.587 0.305 23.689 0.407 23.74 0.509C23.791 0.509 23.791 0.559 23.791 0.559C23.791 0.611 23.842 0.611 23.842 0.662C23.893 0.713 23.893 0.713 23.893 0.764C23.893 0.815 23.945 0.815 23.995 0.865C23.995 0.917 23.995 1.019 23.995 1.069L23.995 7.693C23.995 8.254 23.537 8.713 22.976 8.713Z" />
</g>
<g class="root" id="star" data-name="star">
	<polygon points="12 18.1 19.4 23.5 16.6 14.7 24 9.5 15 9.5 12 0.5 9 9.5 0 9.5 7.4 14.7 4.6 23.5" xmlns="http://www.w3.org/2000/svg" />
</g>
<g class="root" id="success" data-name="success">
	<path class="fill-light" d="M14.622 18.353l0.316-0.203l0.751 1.164l-0.316 0.203l-0.316 0.203l-0.751-1.164L14.622 18.353zM15.747 1.503h-0.751v0.718h0.751V1.503zM18.747 1.503h-0.751v0.718h0.751V1.503zM21.747 0.002h-0.751v0.751h0.751V0.002zM21.747 1.503h-0.751v0.718h0.751V1.503zM18.747 0.002h-0.751v0.751h0.751V0.002zM15.747 0.002h-0.751v0.751h0.751V0.002zM18 19.518h0.374h0.374v-2.289h-0.374h-0.374V19.518zM19.505 19.445l0.366 0.073l0.37 0.073l0.374-1.915l-0.37-0.073l-0.366-0.073L19.505 19.445zM16.131 17.675L16.505 19.59l0.366-0.073l0.37-0.073l-0.374-1.915l-0.37 0.073L16.131 17.675zM21.058 19.315l0.316 0.203l0.316 0.203l0.751-1.164l-0.316-0.203l-0.316-0.203L21.058 19.315zM22.498 21.749v-1.495h-8.249v1.498h-1.498v1.498H0v0.374v0.374h12.751h11.249v-2.249H22.498zM8.923 10.123H0v-2.249h8.924l0.762-0.374h5.314v-1.498h-0.751v-3h8.249v3h-0.751v5.996h0.751v3h-8.249v-3h0.751v-1.498H9.685L8.923 10.123zM19.483 7.5h0.374h0.374V6.749h-0.374h-0.374V7.5zM19.483 10.5h0.374h0.374v-0.751h-0.374h-0.374V10.5z" />
	<path class="fill-btn" d="M9.859 8.254h0.638v1.498h-0.638l-0.762-0.374H0.751v-0.751h8.347L9.859 8.254zM14.996 14.251h6.751v-1.498h-6.751V14.251zM15 3.752v1.498h6.751v-1.498H15zM21 6.002h-2.626h-2.626v1.498v3.004v1.498h2.626h2.626V6.002z" />
	<path class="fill-white" d="M15 9.752h-2.249v-1.498h2.249V9.752zM11.249 9.749h0.751v-1.498h-0.751V9.749zM22.498 22.5h-4.125H13.498v0.751h9.751v-0.751H22.498zM15 21.752h3.377h3.374v-0.751h-6.751V21.752z" />
</g>
<g class="root" id="victory" data-name="victory">
	<path class="fill-light" d="M23.776 16.104c-0.403-0.338-0.841-0.569-1.288-0.694c-0.025-2.691-1.084-5.216-2.991-7.122l-2.406-2.406h0.9v-0.375v-0.375h-1.381c-0.031-0.116-0.047-0.238-0.047-0.363c0-0.131 0.019-0.263 0.053-0.388h1.375v-0.375v-0.375h-0.875l1.897-1.897l0.878-0.772c0.128-0.113 0.166-0.3 0.088-0.45c-0.078-0.153-0.247-0.234-0.416-0.197l-0.866 0.191c-0.466 0.103-0.944 0.063-1.384-0.116l-0.238-0.097c-0.75-0.306-1.575-0.306-2.325 0c-0.566 0.231-1.191 0.231-1.759 0c-0.75-0.306-1.575-0.306-2.325 0l-0.228 0.094c-0.447 0.181-0.931 0.222-1.4 0.113l-0.797-0.184c-0.166-0.038-0.334 0.041-0.416 0.191c-0.078 0.15-0.05 0.334 0.075 0.45l0.753 0.706l1.972 1.972h-0.853v0.375v0.375h1.353c0.034 0.125 0.053 0.253 0.053 0.388c0 0.125-0.016 0.247-0.047 0.363h-1.359v0.375v0.375h0.875l-2.406 2.406c-1.928 1.928-2.991 4.494-2.991 7.222c0 0.078 0.003 0.153 0.009 0.231c-0.656 0.097-1.263 0.4-1.728 0.866l-3.531 3.138v4.188h3.806l12.779-2.469l7.122-4.363c0.169-0.103 0.278-0.281 0.291-0.478C24.014 16.425 23.929 16.232 23.776 16.104" />
	<path class="fill-white" d="M21.989 17.276l-2.61 1.597l-3.072 1.881L3.731 23.185h-2.985v-3.103l3.294-2.931c0.369-0.369 0.838-0.6 1.347-0.672c0.109-0.016 0.219-0.022 0.331-0.022h0.053h0.4h7.272c-0.2 1.022-1.222 1.397-2.113 1.397h-3.047v0.259v0.116v0.263v0.113h7.71l0.191-0.094l0.763-0.375l3.566-1.753c0.378-0.219 0.772-0.328 1.166-0.331c0.125 0 0.25 0.009 0.375 0.031c0.122 0.022 0.244 0.053 0.363 0.094c0.25 0.084 0.494 0.216 0.728 0.391L21.989 17.276z" />
	<path class="fill-btn" d="M11.291 3.247l-1.944-1.944c0.466 0.031 0.931-0.044 1.369-0.222l0.228-0.094c0.566-0.231 1.191-0.231 1.759 0c0.75 0.306 1.575 0.306 2.325 0c0.566-0.231 1.191-0.231 1.759 0l0.238 0.097c0.434 0.175 0.894 0.25 1.353 0.222l-1.938 1.938c-0.119 0.119-0.222 0.25-0.309 0.388h-4.531C11.513 3.494 11.41 3.365 11.291 3.247zM11.888 4.384c0.025 0.125 0.034 0.256 0.038 0.388c0 0.122-0.013 0.244-0.031 0.363h3.947c-0.022-0.119-0.031-0.241-0.031-0.363c0-0.131 0.013-0.263 0.034-0.388H11.888zM18.967 8.819l-2.525-2.525c-0.125-0.125-0.231-0.263-0.322-0.409h-1.722l2.006 2.006l-0.266 0.266l-0.266 0.266l-0.266-0.266l-1.741-1.741l-1.719 1.741l-0.259 0.263l-0.266-0.263l-0.266-0.263l1.981-2.009h-1.725c-0.088 0.15-0.197 0.288-0.322 0.413L8.769 8.816c-1.788 1.788-2.772 4.166-2.772 6.694c0 0.066 0 0.131 0.006 0.197h8.225v0.375c0 0.725-0.266 1.334-0.738 1.772h2.331l4.341-2.131c0.497-0.291 1.034-0.431 1.572-0.422C21.682 12.85 20.704 10.556 18.967 8.819z" />
</g>
<g class="root" id="visas" data-name="visas">
	<path d="M11.41 9.022A3.204 3.204-6.688 0 0 8.45 11.016a3.259 3.259 0 0 0 0.694 3.525a3.187 3.187 0 0 0 3.492 0.701A3.239 3.239-6.688 0 0 11.41 9.022Zm0 5.787a2.529 2.529 0 0 1-2.337-1.575a2.573 2.573 0 0 1 0.548-2.783a2.514 2.514 0 0 1 2.757-0.553A2.557 2.557-6.688 0 1 11.41 14.808Zm0-6.807a4.216 4.216 0 0 0-3.895 2.627A4.284 4.284-6.688 0 0 8.429 15.266A4.186 4.186-6.688 0 0 13.023 16.186A4.262 4.262-6.688 0 0 11.41 7.999Zm0 7.83a3.541 3.541 0 0 1-3.27-2.206a3.602 3.602 0 0 1 0.766-3.895a3.52 3.52 0 0 1 3.86-0.774A3.58 3.58-6.688 0 1 11.41 15.83ZM8.206 6.298H14.614a0.34 0.34 0 0 0 0-0.681H8.206a0.34 0.34 0 0 0 0 0.681ZM12.254 20.255H10.23a0.34 0.34 0 0 0-0.337 0.34v1.361a0.341 0.341 0 0 0 0.099 0.241a0.334 0.334 0 0 0 0.238 0.1h2.024a0.334 0.334 0 0 0 0.238-0.1A0.341 0.341-6.688 0 0 12.59 21.957V20.596a0.341 0.341 0 0 0-0.099-0.241A0.334 0.334-6.688 0 0 12.254 20.255Zm-0.337 1.361H10.567v-0.681h1.349Zm2.697-3.745H8.206a0.34 0.34 0 0 0 0 0.681H14.614a0.34 0.34 0 0 0 0-0.681Zm-0.674 1.023H8.88a0.34 0.34 0 0 0 0 0.681H13.939a0.34 0.34 0 0 0 0-0.681ZM19.504 0H9.049a1.355 1.355 0 0 0-1.349 1.361v1.191h-3.541A1.017 1.017-6.688 0 0 3.148 3.574V22.977a1.017 1.017 0 0 0 1.012 1.023H18.66A1.017 1.017-6.688 0 0 19.672 22.977V21.6a1.353 1.353 0 0 0 1.18-1.344V1.361a1.368 1.368 0 0 0-0.393-0.963A1.341 1.341-6.688 0 0 19.504 0Zm-1.349 2.553H10.736V0.681H18.155ZM8.375 1.361A0.678 0.678-6.688 0 1 9.049 0.681h1.012v1.873H8.375Zm10.623 21.617a0.341 0.341 0 0 1-0.099 0.241a0.334 0.334 0 0 1-0.238 0.1H4.16a0.34 0.34 0 0 1-0.337-0.34V3.574a0.34 0.34 0 0 1 0.337-0.34H18.66a0.334 0.334 0 0 1 0.238 0.1a0.341 0.341 0 0 1 0.099 0.241Zm1.18-2.723A0.681 0.681-6.688 0 1 19.672 20.912V3.574a1.017 1.017 0 0 0-0.844-1.004v-1.889h0.674a0.67 0.67 0 0 1 0.477 0.2a0.683 0.683 0 0 1 0.197 0.482Z" />
</g>
<g class="root" id="visas_v2" data-name="visas-v2">
	<path d="M19.596 1.667V1.062a1.109 1.109 0 0 0-1.124-1.062a0.203 0.203 0 0 0-0.041 0.003L4.362 1.669c-0.003 0-0.006 0.003-0.008 0.003A1.062 1.062-6.492 0 0 3.344 2.73V22.938a1.062 1.062 0 0 0 1.06 1.062H19.596A1.062 1.062-6.492 0 0 20.656 22.938V2.73a1.062 1.062 0 0 0-1.06-1.062ZM18.492 0.711a0.415 0.415 0 0 1 0.399 0.354v0.603H10.417ZM19.948 22.938a0.354 0.354 0 0 1-0.354 0.354H4.404a0.354 0.354 0 0 1-0.354-0.354V2.73a0.354 0.354 0 0 1 0.354-0.354H19.596a0.354 0.354 0 0 1 0.354 0.354ZM12 8.403a3.369 3.369 0 1 0 3.357 3.368A3.357 3.357-6.492 0 0 12 8.403Zm0 6.027a2.66 2.66 0 1 1 2.65-2.659A2.65 2.65-6.492 0 1 12 14.429Zm0-7.09A4.433 4.433-6.492 1 0 16.416 11.77A4.416 4.416-6.492 0 0 12 7.339Zm0 8.154a3.724 3.724 0 1 1 3.709-3.722A3.709 3.709-6.492 0 1 12 15.492ZM8.643 5.566H15.357a0.354 0.354 0 0 0 0-0.708H8.643a0.354 0.354 0 0 0 0 0.708ZM12.883 20.1H10.763a0.354 0.354 0 0 0-0.354 0.354v1.416a0.354 0.354 0 0 0 0.354 0.354h2.12a0.354 0.354 0 0 0 0.354-0.354v-1.416a0.354 0.354 0 0 0-0.354-0.354Zm-0.354 1.416H11.117v-0.708h1.413Zm2.826-3.9H8.643a0.354 0.354 0 0 0 0 0.708H15.357a0.354 0.354 0 0 0 0-0.708Zm-0.708 1.062H9.35a0.354 0.354 0 0 0 0 0.708H14.65a0.354 0.354 0 0 0 0-0.708Z" />
</g>
</svg>