<?xml version="1.0" encoding="UTF-8" standalone="no"?>
<svg xmlns="http://www.w3.org/2000/svg" viewBox="0 0 36 36">
<style>
	g path { stroke: none; }
	g.root { display: none; }
	g.root:target { display: inline; }
	g line { stroke: black; }
	g circle { stroke: black; }
	g polyline { stroke: black; }
</style>
<g class="root" id="accessibility" data-name="accessibility">
	<circle cx="18" cy="18" r="18" class="cls-1" />
	<path class="cls-2" d="M20.308 27.42a1.124 1.124 0 0 0 1.04 0.68a1.064 1.064 0 0 0 0.48-0.12a1.152 1.152 0 0 0 0.56-1.56s-2.2-5.04-2.6-6.88a25.092 25.092 0 0 1-0.28-3.16a0.616 0.616 0 0 1 0.4-0.6l4.92-1.48a1.164 1.164 0 0 0-0.64-2.24s-4.56 1.48-6.2 1.48-6.12-1.44-6.12-1.44a1.2 1.2 0 0 0-1.48 0.72a1.156 1.156 0 0 0 0.8 1.48l4.92 1.48a0.568 0.568 0 0 1 0.4 0.6a25.092 25.092 0 0 1-0.28 3.16c-0.4 1.84-2.6 6.88-2.6 6.88a1.2 1.2 0 0 0 0.56 1.56a1.12 1.12 0 0 0 0.48 0.12a1.092 1.092 0 0 0 1.04-0.68l2.36-4.8Zm0-17.28a2.24 2.24 0 1 1-2.24-2.24a2.24 2.24 0 0 1 2.24 2.24" />
</g>
<g class="root" id="accessibility_clear_all" data-name="accessibility-clear-all">
	<path d="M30.94 7.361L28.793 36L6.794 36L4.649 7.361L1.635 7.361L1.635 4.78L11.706 4.78L11.706 0L23.801 0L23.801 4.78L34.365 4.78L34.365 7.361L30.94 7.361ZM21.323 2.538L14.223 2.538L14.223 4.738L21.323 4.738L21.323 2.538ZM7.125 7.317L9.064 33.376L26.399 33.376L28.381 7.317L7.125 7.317ZM21.122 29.72L22.115 10.966L24.629 11.106L23.636 29.861L21.122 29.72ZM16.493 11.041L19.011 11.041L19.011 29.782L16.493 29.782L16.493 11.041ZM10.875 11.106L13.389 10.967L14.38 29.722L11.867 29.861L10.875 11.106Z" />
</g>
<g class="root" id="accessibility_hide" data-name="accessibility-hide">
	<path d="M36 3.281L32.729 0.009L18.001 14.729L3.272 0.009L0 3.281L14.728 17.999L0 32.719L3.272 35.991L18.001 21.271L32.729 35.991L36 32.719L21.273 17.999L36 3.281Z" />
</g>
<g class="root" id="accessibility_high_contr" data-name="accessibility-high-contrast">
	<path d="M18 36C8.06 36 0 27.94 0 18C0 8.059 8.06 0 18 0C27.941 0 36 8.06 36 18C36 27.94 27.94 36 18 36ZM18 2.878C9.662 2.878 2.88 9.662 2.88 18C2.88 26.338 9.662 33.122 18 33.122C26.338 33.122 33.122 26.338 33.122 18C33.122 9.662 26.338 2.878 18 2.878ZM29.637 18C29.637 18 29.637 18 29.637 18C29.637 18 29.637 18 29.637 18L29.637 18ZM18 29.637L18 6.363C24.417 6.363 29.637 11.583 29.637 18C29.637 24.417 24.417 29.637 18 29.637Z" />
</g>
<g class="root" id="accessibility_skip_to_co" data-name="accessibility-skip-to-content">
	<path d="M12.594 23.418L12.594 19.825L36 19.825L36 23.418L12.594 23.418ZM0 12.58L36 12.58L36 16.175L0 16.175L0 12.58ZM27.027 3.599L36 3.599L36 7.192L27.027 7.192L27.027 3.599ZM0 3.599L23.409 3.599L23.409 7.192L0 7.192L0 3.599ZM8.975 23.418L0 23.418L0 19.825L8.975 19.825L8.975 23.418ZM19.79 32.401L0 32.401L0 28.806L19.79 28.806L19.79 32.401Z" />
</g>
<g class="root" id="accessibility_text_size" data-name="accessibility-text-size">
	<path d="M30.953 17.652L30.953 12.604L28.429 12.604L28.429 17.652L23.38 17.652L23.38 20.177L28.429 20.177L28.429 25.224L30.953 25.224L30.953 20.177L36 20.177L36 17.652L30.953 17.652ZM27.02 1.805L0.009 1.796L0 5.405L11.052 5.405L11.052 34.204L14.738 34.204L14.738 5.405L27.02 5.405L27.02 1.805Z" />
</g>
<g class="root" id="amazon_payment" data-name="amazon_payment">
	<path d="M30.98 29.652C31.14 29.577 31.32 29.555 31.494 29.593C31.64 29.632 31.712 29.75 31.712 29.944C31.688 30.196 31.583 30.433 31.414 30.618C31.146 30.932 30.853 31.223 30.541 31.491C29.945 31.996 29.313 32.452 28.649 32.858C27.754 33.422 26.819 33.919 25.852 34.344C24.652 34.854 23.404 35.244 22.126 35.51C20.632 35.84 19.107 36.004 17.576 36.001C15.984 35.998 14.399 35.789 12.858 35.379C11.428 35.017 10.038 34.501 8.715 33.842C7.525 33.233 6.382 32.535 5.295 31.753C4.374 31.109 3.495 30.403 2.664 29.645C2.072 29.096 1.515 28.508 0.998 27.887C0.907 27.793 0.84 27.681 0.799 27.555C0.771 27.477 0.779 27.387 0.819 27.315C0.858 27.254 0.912 27.206 0.976 27.174C1.047 27.14 1.127 27.126 1.205 27.133C1.288 27.14 1.368 27.171 1.432 27.224C3.351 28.445 5.335 29.557 7.378 30.554C12.322 32.888 17.883 33.523 23.219 32.361C25.901 31.769 28.506 30.859 30.98 29.652ZM35.082 27.343C35.246 27.792 35.264 28.281 35.132 28.74C35.024 29.446 34.834 30.138 34.568 30.8C34.221 31.761 33.641 32.618 32.88 33.291C32.655 33.477 32.484 33.538 32.365 33.471C32.246 33.405 32.246 33.247 32.365 32.996C32.712 32.203 33.006 31.388 33.248 30.555C33.56 29.53 33.604 28.872 33.376 28.577C33.295 28.471 33.187 28.391 33.063 28.345C32.892 28.278 32.712 28.237 32.528 28.224L31.942 28.174C31.712 28.16 31.48 28.16 31.248 28.174C30.958 28.187 30.749 28.201 30.622 28.213L30.008 28.273L29.563 28.314C29.483 28.326 29.396 28.337 29.304 28.344C29.211 28.35 29.139 28.356 29.086 28.364L28.917 28.384C28.871 28.391 28.824 28.394 28.779 28.394L28.58 28.394L28.52 28.384L28.481 28.355L28.451 28.295C28.373 28.083 28.685 27.815 29.39 27.491C30.036 27.185 30.724 26.981 31.431 26.889C32.141 26.793 32.861 26.785 33.572 26.867C34.392 26.944 34.895 27.102 35.08 27.343L35.082 27.343ZM27.272 18.445C27.277 18.887 27.368 19.322 27.539 19.73C27.702 20.144 27.915 20.534 28.174 20.895C28.418 21.23 28.666 21.537 28.917 21.819C29.117 22.051 29.337 22.266 29.572 22.462L29.829 22.683L25.329 27.184C24.8 26.687 24.278 26.182 23.764 25.666C23.25 25.151 22.868 24.759 22.615 24.492L22.238 24.091C22.051 23.887 21.885 23.666 21.742 23.428C21.23 24.23 20.573 24.929 19.808 25.489C19.044 26.057 18.189 26.486 17.28 26.757C16.377 27.025 15.444 27.18 14.504 27.218C13.577 27.262 12.649 27.119 11.778 26.796C10.936 26.489 10.149 26.044 9.449 25.481C8.723 24.873 8.158 24.094 7.803 23.21C7.378 22.177 7.169 21.066 7.188 19.946C7.176 18.888 7.364 17.837 7.743 16.851C8.069 15.987 8.552 15.193 9.17 14.512C9.792 13.855 10.502 13.293 11.279 12.841C12.051 12.379 12.863 11.995 13.708 11.697C14.551 11.408 15.411 11.177 16.285 11.004C17.067 10.838 17.857 10.714 18.654 10.633C19.308 10.573 19.966 10.529 20.626 10.502L20.626 7.955C20.672 7.28 20.527 6.604 20.211 6.007C19.654 5.245 18.742 4.839 17.811 4.942C17.731 4.942 17.623 4.949 17.484 4.963C17.209 5.015 16.94 5.096 16.681 5.204C16.288 5.35 15.913 5.549 15.571 5.797C15.142 6.134 14.767 6.538 14.46 6.991C14.045 7.579 13.723 8.231 13.51 8.921L7.68 8.378C7.684 7.562 7.831 6.751 8.118 5.988C8.43 5.16 8.88 4.394 9.445 3.718C10.061 2.978 10.783 2.337 11.587 1.817C12.516 1.224 13.529 0.781 14.59 0.5C15.821 0.161 17.092-0.006 18.367 0.002C19.582-0.014 20.792 0.155 21.957 0.503C22.876 0.763 23.744 1.182 24.523 1.738C25.142 2.204 25.685 2.767 26.13 3.406C26.511 3.933 26.812 4.516 27.022 5.134C27.178 5.61 27.261 6.109 27.269 6.61L27.272 18.445ZM13.949 18.866C13.911 19.943 14.438 20.959 15.336 21.537C16.136 22.114 17.156 22.277 18.095 21.979C19.228 21.62 20.088 20.68 20.355 19.507C20.548 18.849 20.64 18.166 20.631 17.478L20.631 14.224C19.892 14.246 19.157 14.326 18.43 14.464C17.703 14.611 16.995 14.837 16.318 15.138C14.833 15.752 13.886 17.241 13.946 18.866L13.949 18.866Z" />
</g>
<g class="root" id="dinersclub_payment" data-name="dinersclub payment">
	<path d="M11.452 25.76L11.452 10.181C9.9 10.779 8.562 11.841 7.622 13.225C5.02 16.998 5.94 22.189 9.68 24.817C10.232 25.202 10.826 25.521 11.452 25.76ZM22.68 17.98C22.696 16.281 22.18 14.619 21.21 13.229C20.268 11.841 18.932 10.781 17.378 10.181L17.378 25.777C18.932 25.178 20.268 24.117 21.21 22.732C22.18 21.342 22.696 19.681 22.68 17.98ZM27.468 17.98C27.484 20.305 26.88 22.586 25.72 24.592C24.584 26.586 22.94 28.242 20.964 29.393C17.42 31.458 13.118 31.724 9.348 30.113C6.202 28.796 3.704 26.272 2.398 23.096C0.8 19.293 1.064 14.952 3.11 11.373C4.248 9.379 5.888 7.721 7.866 6.573C11.92 4.221 16.91 4.221 20.964 6.573C22.94 7.721 24.584 9.379 25.72 11.373C26.88 13.379 27.484 15.66 27.468 17.98ZM36 18.138C36.012 16.113 35.592 14.107 34.764 12.259C34 10.507 32.88 8.931 31.478 7.639C30.082 6.377 28.472 5.377 26.724 4.693C24.932 3.977 23.024 3.611 21.1 3.613L14.392 3.613C11.876 3.589 9.394 4.213 7.186 5.431C5.004 6.637 3.192 8.425 1.952 10.601C0.638 12.889-0.036 15.492 0.002 18.135C-0.012 20.649 0.658 23.117 1.94 25.272C4.552 29.701 9.286 32.405 14.392 32.388L21.096 32.388C23.02 32.388 24.924 32.001 26.7 31.253C28.458 30.537 30.076 29.509 31.478 28.219C32.858 26.933 33.974 25.387 34.764 23.665C35.578 21.94 36 20.053 36 18.138Z" />
</g>
<g class="root" id="facebook" data-name="facebook">
	<path d="M20.762 0C14.563 0 13.152 4.601 13.152 7.544L13.152 11.658L9.562 11.658L9.562 18.016L13.144 18.016C13.144 26.175 13.144 36 13.144 36L20.684 36C20.684 36 20.684 26.076 20.684 18.016L25.77 18.016L26.438 11.658L20.692 11.658L20.692 7.924C20.692 6.517 21.628 6.191 22.287 6.191L26.345 6.191L26.345 0.024L20.762 0Z" />
</g>
<g class="root" id="linkedin" data-name="LinkedIn">
	<path d="M4.286 1.688C1.695 1.688 0 3.347 0 5.536C0 7.684 1.647 9.378 4.187 9.378L4.238 9.378C6.875 9.378 8.517 7.677 8.517 5.529C8.467 3.342 6.875 1.688 4.286 1.688ZM27.096 11.936C23.076 11.936 20.557 14.106 20.091 15.627L20.091 12.149L12.208 12.149C12.311 13.996 12.208 34.312 12.208 34.312L20.091 34.312L20.091 22.319C20.091 21.653 20.06 20.986 20.262 20.508C20.805 19.176 21.969 17.792 24.063 17.792C26.799 17.792 28.044 19.842 28.044 22.843L28.044 34.312L36 34.312L36 21.989C36 15.125 32.082 11.936 27.096 11.936ZM0.908 12.15L0.908 34.312L7.924 34.312L7.924 12.15L0.908 12.15Z" />
</g>
<g class="root" id="paypal_payment" data-name="paypal payment">
	<path d="M32.28 7.192C32.885 8.435 33.177 9.809 33.129 11.192C33.19 14.705 31.472 18.007 28.571 19.966C25.53 22.188 21.284 23.299 15.829 23.298L14.551 23.298C13.549 23.331 12.685 24.012 12.415 24.981L10.88 31.547C10.613 32.518 9.749 33.201 8.747 33.234L5.953 33.234L5.704 34.308C5.501 35.009 5.901 35.742 6.598 35.947C6.746 35.991 6.901 36.007 7.055 35.998L11.53 35.998C12.532 35.965 13.399 35.282 13.666 34.311L15.2 27.742C15.47 26.772 16.334 26.091 17.335 26.058L18.612 26.058C24.068 26.058 28.315 24.947 31.353 22.725C34.256 20.768 35.972 17.465 35.915 13.953C35.96 12.571 35.669 11.197 35.063 9.953C34.492 8.88 33.642 7.981 32.605 7.353C32.494 7.282 32.399 7.258 32.28 7.192ZM8.097 28.786L9.631 22.217C9.901 21.248 10.766 20.565 11.766 20.532L13.043 20.532C18.501 20.532 22.747 19.422 25.784 17.2C28.687 15.242 30.403 11.939 30.344 8.427C30.392 7.043 30.099 5.669 29.494 4.427C28.923 3.353 28.073 2.454 27.037 1.825C25.841 1.117 24.526 0.638 23.156 0.412C21.419 0.12 19.658-0.017 17.895 0.002L8.575 0.002C7.574 0.037 6.711 0.718 6.443 1.686L0.134 28.786C-0.069 29.486 0.332 30.219 1.028 30.422C1.177 30.466 1.331 30.483 1.485 30.473L5.953 30.473C6.959 30.443 7.828 29.759 8.097 28.786ZM11.75 13.062L13.096 7.31C13.368 6.339 14.234 5.658 15.236 5.625L16.7 5.625C18.046 5.538 19.388 5.836 20.57 6.488C21.445 7.068 21.943 8.073 21.874 9.124C21.948 10.767 21.188 12.335 19.853 13.287C18.175 14.358 16.205 14.873 14.221 14.759L13.109 14.759C12.38 14.808 11.75 14.254 11.701 13.522C11.691 13.367 11.707 13.211 11.75 13.062Z" />
</g>
<g class="root" id="twitter" data-name="Twitter">
	<path d="M25.3 3.379C21.146 3.379 18.125 6.452 18.125 10.383C18.125 10.874 18.125 11.243 18.251 11.489L18.125 11.489C10.951 11.489 6.168 10.014 2.518 5.59C1.888 6.697 1.259 7.803 1.259 9.154C1.259 11.611 2.895 13.7 4.909 15.051L4.909 15.051C3.65 15.051 2.266 14.438 1.259 13.823L1.259 13.823C1.259 17.386 6.294 21.44 9.692 22.055C9.251 22.485 8.439 22.629 7.548 22.629C5.898 22.629 3.977 22.135 3.65 22.055L3.65 22.055C4.657 24.88 7.678 26.723 10.825 26.723C8.307 28.69 5.286 29.672 1.762 29.672C1.133 29.672 0.629 29.672 0 29.55L0 29.55C3.272 31.637 7.803 32.621 12.083 32.621C25.678 32.621 32.601 22.177 32.601 12.594C32.601 12.225 32.601 11.734 32.601 11.365C33.859 10.505 35.118 9.154 36 7.68L36 7.68C34.615 8.294 32.727 9.032 31.216 9.154C32.727 8.294 34.237 6.205 34.866 4.485L34.866 4.485C33.733 5.223 32.349 6.083 30.964 6.574L30.083 5.714C28.699 4.363 27.44 3.379 25.3 3.379Z" />
</g>
<g class="root" id="visa_payment" data-name="visa payment">
	<path d="M14.994 12.386L12.544 23.762L15.514 23.762L17.888 12.388L14.994 12.386ZM10.688 12.386L7.645 20.096L6.386 13.509C6.275 12.854 5.708 12.377 5.049 12.386L0.074 12.386L0 12.685C0.999 12.897 1.969 13.223 2.894 13.659C3.341 13.884 3.413 14.107 3.562 14.632L5.864 23.687L8.982 23.687L13.73 12.311L10.688 12.311L10.688 12.386ZM33.772 12.386L31.252 12.386C30.701 12.365 30.197 12.694 29.992 13.211L25.609 23.762L28.652 23.762L29.246 22.038L32.958 22.038L33.329 23.762L36 23.762L33.772 12.386ZM30.211 19.721L31.77 15.457L32.659 19.721L30.211 19.721ZM21.751 15.529C21.751 15.156 22.122 14.708 23.011 14.557C24.005 14.463 25.006 14.643 25.906 15.081L26.424 12.685C25.542 12.361 24.615 12.185 23.677 12.163C20.783 12.163 18.778 13.734 18.778 15.905C18.778 17.552 20.263 18.445 21.298 18.972C22.412 19.496 22.783 19.87 22.783 20.394C22.783 21.143 21.892 21.518 21.002 21.518C19.962 21.554 18.932 21.294 18.032 20.769L17.512 23.238C18.553 23.645 19.663 23.848 20.779 23.838C23.821 23.838 25.826 22.34 25.826 19.946C25.83 17.102 21.674 16.881 21.748 15.529L21.751 15.529Z" />
</g>
<g class="root" id="yelp" data-name="Yelp">
	<path d="M4.349 24.665a1.628 1.628 0 0 0 1.372 0.888H5.813A45.635 45.635-0.067 0 0 11.733 23.789l2.412-0.752a1.78 1.78 0 0 0 1.312-1.688A1.852 1.852-0.067 0 0 14.297 19.417l-1.702-0.68h0C6.445 16.406 6.413 16.406 6.065 16.33a1.628 1.628 0 0 0-1.508 0.784a12.496 12.496 0 0 0-0.68 5.938A4.7 4.7-0.067 0 0 4.349 24.665Zm12.884-0.074a1.944 1.944 0 0 0-2.2 0.496l-1.086 1.266l-0.104 0.12C9.549 31.353 9.533 31.477 9.413 31.733a1.404 1.404 0 0 0-0.092 0.664a1.66 1.66 0 0 0 0.408 0.904A13.788 13.788-0.067 0 0 16.647 35.999l0.376 0a1.614 1.614 0 0 0 1.296-1.008c0.12-0.316 0.12-0.348 0.136-6.116 0 0 0-2.398 0-2.472A1.764 1.764-0.067 0 0 17.235 24.573ZM17.625 1.2v0a1.628 1.628 0 0 0-1.252-1.132C14.685-0.364 8.523 1.338 7.331 2.512a1.596 1.596 0 0 0-0.454 1.596c0.18 0.362 6.888 10.656 7.656 11.816s1.404 1.614 2.168 1.614a1.748 1.748 0 0 0 0.512-0.074c0.964-0.284 1.404-1.206 1.324-2.728C18.454 12.352 17.717 1.728 17.625 1.2Zm4.204 19.275a2.05 2.05 0 0 1-1.206-0.858a1.72 1.72 0 0 1 0-2.108l1.508-1.99c3.436-4.52 3.512-4.688 3.816-4.868a1.642 1.642 0 0 1 1.642 0a12.66 12.66 0 0 1 4.324 6.208v0.092a1.508 1.508 0 0 1-0.68 1.508c-0.302 0.18-0.362 0.224-6.768 1.732A9.224 9.224-0.067 0 1 21.828 20.459ZM31.582 25.717c-0.272-0.196-0.302-0.212-5.938-2.018l-2.398-0.784a1.852 1.852 0 0 0-2.064 0.62A1.824 1.824-0.067 0 0 21.032 25.733l0.964 1.508c3.36 5.304 3.498 5.516 3.784 5.728a1.508 1.508 0 0 0 0.936 0.316a1.9 1.9 0 0 0 0.692-0.136a12.646 12.646 0 0 0 4.792-5.938A1.508 1.508-0.067 0 0 31.582 25.717Z" />
</g>
</svg>